<svg width="139" height="139" viewBox="0 0 149 149" fill="none"
  xmlns="http://www.w3.org/2000/svg">
  <path d="M145.78 85.4112C146.326 81.7863 146.599 78.1724 146.599 74.5035C146.599 43.0366 126.352 15.1945 96.5869 5.74121" stroke="white" stroke-width="1.01057" stroke-miterlimit="10"/>
  <path d="M69.1836 146.35C103.374 149.215 134.756 127.179 143.967 93.8613" stroke="white" stroke-width="1.01057" stroke-miterlimit="10"/>
  <path d="M22.624 123.488C32.7641 134.528 46.073 142.097 60.6932 145.127" stroke="white" stroke-width="1.01057" stroke-miterlimit="10"/>
  <path d="M5.32606 58.7148C0.835129 78.8995 5.16216 100.043 17.1926 116.801" stroke="white" stroke-width="1.01057" stroke-miterlimit="10"/>
  <path d="M88.2709 3.63643C53.6546 -2.90817 19.4645 16.935 7.69629 50.4071" stroke="white" stroke-width="1.01057" stroke-miterlimit="10"/>
  <path d="M109.438 127.091C126.987 115.445 137.542 95.6791 137.542 74.5028C137.542 60.4771 132.898 46.848 124.343 35.7861" stroke="white" stroke-width="1.01057" stroke-miterlimit="10"/>
  <path d="M23.9902 110.696C41.506 135.839 74.4504 144.565 101.953 131.344" stroke="white" stroke-width="1.01057" stroke-miterlimit="10"/>
  <path d="M41.6905 21.2979C14.3734 38.7391 4.76868 74.3046 19.5527 103.293" stroke="white" stroke-width="1.01057" stroke-miterlimit="10"/>
  <path d="M118.616 29.3522C100.182 11.272 72.6465 6.44615 49.2412 17.1775" stroke="white" stroke-width="1.01057" stroke-miterlimit="10"/>
  <path d="M126.277 89.8181C127.763 84.7719 128.484 79.7698 128.484 74.5033C128.484 55.8391 118.89 38.508 103.145 28.7021" stroke="white" stroke-width="1.01057" stroke-miterlimit="10"/>
  <path d="M58.1143 125.538C83.6175 134.165 111.503 122.31 123.184 97.8721" stroke="white" stroke-width="1.01057" stroke-miterlimit="10"/>
  <path d="M26.3941 52.4229C14.8335 78.3588 25.2686 108.9 50.2255 122.144" stroke="white" stroke-width="1.01057" stroke-miterlimit="10"/>
  <path d="M95.5161 24.7575C71.8814 14.8966 44.6189 23.3252 30.5342 44.8541" stroke="white" stroke-width="1.01057" stroke-miterlimit="10"/>
  <path d="M34.0537 91.4168C42.074 111.194 62.846 122.487 83.6398 118.366C104.434 114.246 119.425 95.868 119.425 74.5044C119.425 72.1687 119.25 69.8769 118.89 67.5742" stroke="white" stroke-width="1.01057" stroke-miterlimit="10"/>
  <path d="M58.8795 32.9004C38.938 40.8002 27.4648 61.9544 31.5952 83.1417" stroke="white" stroke-width="1.01057" stroke-miterlimit="10"/>
  <path d="M116.747 59.1993C109.349 38.7171 88.3808 26.6085 67.1172 30.5198" stroke="white" stroke-width="1.01057" stroke-miterlimit="10"/>
  <path d="M103.799 95.1617C108.071 89.135 110.366 81.9073 110.366 74.4923C110.366 65.4797 106.967 56.7976 100.87 50.209" stroke="white" stroke-width="1.01057" stroke-miterlimit="10"/>
  <path d="M46.225 54.0654C36.0084 68.7302 38.2156 88.7716 51.3716 100.825C64.5275 112.879 84.5127 113.187 98.0183 101.541" stroke="white" stroke-width="1.01057" stroke-miterlimit="10"/>
  <path d="M94.3026 44.6671C81.103 36.0291 63.8277 37.2411 51.9502 47.6529" stroke="white" stroke-width="1.01057" stroke-miterlimit="10"/>
  <path d="M19.2613 121.386C20.2021 121.386 20.9576 120.618 20.9576 119.679C20.9576 118.741 20.2021 117.973 19.2613 117.973C18.3206 117.973 17.565 118.741 17.565 119.679C17.565 120.618 18.3205 121.386 19.2613 121.386Z" fill="white" stroke="white" stroke-width="1.01057"/>
  <path d="M64.3766 147.024C65.3174 147.024 66.0729 146.256 66.0729 145.318C66.0729 144.38 65.3174 143.612 64.3766 143.612C63.4358 143.612 62.6803 144.38 62.6803 145.318C62.6803 146.256 63.4358 147.024 64.3766 147.024Z" fill="white" stroke="white" stroke-width="1.01057"/>
  <path d="M91.9127 5.72065C92.8535 5.72065 93.609 4.95278 93.609 4.01442C93.609 3.07606 92.8535 2.30819 91.9127 2.30819C90.9719 2.30819 90.2164 3.07605 90.2164 4.01442C90.2164 4.95279 90.9719 5.72065 91.9127 5.72065Z" fill="white" stroke="white" stroke-width="1.01057"/>
  <path d="M5.84239 55.6865C6.78318 55.6865 7.5387 54.9186 7.5387 53.9802C7.5387 53.0419 6.78318 52.274 5.84239 52.274C4.90161 52.274 4.14608 53.0419 4.14608 53.9802C4.14608 54.9186 4.90161 55.6865 5.84239 55.6865Z" fill="white" stroke="white" stroke-width="1.01057"/>
  <path d="M144.449 90.8222C145.39 90.8222 146.145 90.0543 146.145 89.116C146.145 88.1776 145.39 87.4098 144.449 87.4098C143.508 87.4098 142.753 88.1776 142.753 89.116C142.753 90.0543 143.508 90.8222 144.449 90.8222Z" fill="white" stroke="white" stroke-width="1.01057"/>
  <path d="M121.044 33.6289C121.984 33.6289 122.74 32.861 122.74 31.9226C122.74 30.9843 121.984 30.2164 121.044 30.2164C120.103 30.2164 119.347 30.9843 119.347 31.9226C119.347 32.861 120.103 33.6289 121.044 33.6289Z" fill="white" stroke="white" stroke-width="1.01057"/>
  <path d="M21.1061 108.231C22.0469 108.231 22.8024 107.464 22.8024 106.525C22.8024 105.587 22.0469 104.819 21.1061 104.819C20.1653 104.819 19.4098 105.587 19.4098 106.525C19.4098 107.464 20.1653 108.231 21.1061 108.231Z" fill="white" stroke="white" stroke-width="1.01057"/>
  <path d="M44.8502 20.2646C45.791 20.2646 46.5465 19.4967 46.5465 18.5584C46.5465 17.62 45.791 16.8521 44.8502 16.8521C43.9094 16.8521 43.1539 17.62 43.1539 18.5584C43.1539 19.4967 43.9094 20.2646 44.8502 20.2646Z" fill="white" stroke="white" stroke-width="1.01057"/>
  <path d="M105.222 130.509C106.163 130.509 106.919 129.741 106.919 128.803C106.919 127.864 106.163 127.096 105.222 127.096C104.281 127.096 103.526 127.864 103.526 128.803C103.526 129.741 104.281 130.509 105.222 130.509Z" fill="white" stroke="white" stroke-width="1.01057"/>
  <path d="M71.6442 133.99C72.5849 133.99 73.3405 133.222 73.3405 132.284C73.3405 131.346 72.5849 130.578 71.6442 130.578C70.7034 130.578 69.9478 131.346 69.9478 132.284C69.9478 133.222 70.7034 133.99 71.6442 133.99Z" fill="white" stroke="white" stroke-width="1.01057"/>
  <path d="M124.356 95.0644C125.297 95.0644 126.052 94.2965 126.052 93.3582C126.052 92.4198 125.297 91.6519 124.356 91.6519C123.415 91.6519 122.66 92.4198 122.66 93.3582C122.66 94.2965 123.415 95.0644 124.356 95.0644Z" fill="white" stroke="white" stroke-width="1.01057"/>
  <path d="M27.7731 49.7148C28.7138 49.7148 29.4694 48.9469 29.4694 48.0086C29.4694 47.0702 28.7138 46.3023 27.7731 46.3023C26.8323 46.3023 26.0767 47.0702 26.0767 48.0086C26.0767 48.9469 26.8323 49.7148 27.7731 49.7148Z" fill="white" stroke="white" stroke-width="1.01057"/>
  <path d="M53.5592 125.154C54.5 125.154 55.2555 124.386 55.2555 123.448C55.2555 122.51 54.5 121.742 53.5592 121.742C52.6184 121.742 51.8629 122.51 51.8629 123.448C51.8629 124.386 52.6184 125.154 53.5592 125.154Z" fill="white" stroke="white" stroke-width="1.01057"/>
  <path d="M98.8619 27.7236C99.8027 27.7236 100.558 26.9557 100.558 26.0174C100.558 25.079 99.8027 24.3111 98.8619 24.3111C97.9211 24.3111 97.1656 25.079 97.1656 26.0174C97.1656 26.9557 97.9211 27.7236 98.8619 27.7236Z" fill="white" stroke="white" stroke-width="1.01057"/>
  <path d="M62.4 32.6708C63.3408 32.6708 64.0963 31.903 64.0963 30.9646C64.0963 30.0263 63.3408 29.2584 62.4 29.2584C61.4592 29.2584 60.7037 30.0263 60.7037 30.9646C60.7037 31.903 61.4592 32.6708 62.4 32.6708Z" fill="white" stroke="white" stroke-width="1.01057"/>
  <path d="M32.0875 88.498C33.0283 88.498 33.7838 87.7301 33.7838 86.7918C33.7838 85.8534 33.0283 85.0855 32.0875 85.0855C31.1467 85.0855 30.3912 85.8534 30.3912 86.7918C30.3912 87.7301 31.1467 88.498 32.0875 88.498Z" fill="white" stroke="white" stroke-width="1.01057"/>
  <path d="M117.471 64.4902C118.412 64.4902 119.168 63.7223 119.168 62.784C119.168 61.8456 118.412 61.0777 117.471 61.0777C116.531 61.0777 115.775 61.8456 115.775 62.784C115.775 63.7223 116.531 64.4902 117.471 64.4902Z" fill="white" stroke="white" stroke-width="1.01057"/>
  <path d="M97.2125 48.4042C98.1533 48.4042 98.9088 47.6364 98.9088 46.698C98.9088 45.7596 98.1533 44.9918 97.2125 44.9918C96.2717 44.9918 95.5162 45.7596 95.5162 46.698C95.5162 47.6364 96.2717 48.4042 97.2125 48.4042Z" fill="white" stroke="white" stroke-width="1.01057"/>
  <path d="M100.556 99.6816C101.497 99.6816 102.253 98.9137 102.253 97.9754C102.253 97.037 101.497 96.2691 100.556 96.2691C99.6155 96.2691 98.86 97.037 98.86 97.9754C98.86 98.9137 99.6155 99.6816 100.556 99.6816Z" fill="white" stroke="white" stroke-width="1.01057"/>
  <path d="M48.3463 51.8408C49.2871 51.8408 50.0426 51.0729 50.0426 50.1345C50.0426 49.1962 49.2871 48.4283 48.3463 48.4283C47.4055 48.4283 46.65 49.1962 46.65 50.1345C46.65 51.0729 47.4055 51.8408 48.3463 51.8408Z" fill="white" stroke="white" stroke-width="1.01057"/>
  <path d="M74.5095 56.8804C78.5933 56.8802 82.5508 58.2961 85.7077 60.8868C88.8646 63.4774 91.0255 67.0826 91.8224 71.0879C92.6192 75.0932 92.0025 79.2509 90.0775 82.8525C88.1525 86.4541 85.0383 89.2769 81.2654 90.8398C77.4925 92.4027 73.2944 92.609 69.3864 91.4236C65.4784 90.2383 62.1023 87.7345 59.8334 84.339C57.5645 80.9435 56.5431 76.8663 56.9433 72.8022C57.3435 68.738 59.1405 64.9384 62.0282 62.0506C63.6633 60.4063 65.6084 59.1026 67.7509 58.2151C69.8933 57.3276 72.1905 56.8739 74.5095 56.8804ZM74.5095 54.0068C63.1735 54.0068 53.9844 63.1959 53.9844 74.532C53.9844 85.868 63.1735 95.0571 74.5095 95.0571C85.8455 95.0571 95.0346 85.868 95.0346 74.532C95.0346 63.1959 85.8455 54.0068 74.5095 54.0068Z" fill="white"/>
  <path d="M74.5099 82.7414C79.0441 82.7414 82.7199 79.0656 82.7199 74.5313C82.7199 69.9971 79.0441 66.3213 74.5099 66.3213C69.9756 66.3213 66.2998 69.9971 66.2998 74.5313C66.2998 79.0656 69.9756 82.7414 74.5099 82.7414Z" fill="white"/>
  <path d="M74.5092 98.1346C77.3431 98.1346 79.6405 95.8373 79.6405 93.0034C79.6405 90.1694 77.3431 87.8721 74.5092 87.8721C71.6753 87.8721 69.3779 90.1694 69.3779 93.0034C69.3779 95.8373 71.6753 98.1346 74.5092 98.1346Z" fill="white"/>
  <path d="M74.5092 61.1893C77.3431 61.1893 79.6405 58.892 79.6405 56.058C79.6405 53.2241 77.3431 50.9268 74.5092 50.9268C71.6753 50.9268 69.3779 53.2241 69.3779 56.058C69.3779 58.892 71.6753 61.1893 74.5092 61.1893Z" fill="white"/>
  <path d="M92.9819 79.663C95.8158 79.663 98.1132 77.3656 98.1132 74.5317C98.1132 71.6977 95.8158 69.4004 92.9819 69.4004C90.1479 69.4004 87.8506 71.6977 87.8506 74.5317C87.8506 77.3656 90.1479 79.663 92.9819 79.663Z" fill="white"/>
  <path d="M56.0366 79.663C58.8705 79.663 61.1678 77.3656 61.1678 74.5317C61.1678 71.6977 58.8705 69.4004 56.0366 69.4004C53.2026 69.4004 50.9053 71.6977 50.9053 74.5317C50.9053 77.3656 53.2026 79.663 56.0366 79.663Z" fill="white"/>
</svg>
