<svg width="23" height="23" viewBox="0 0 23 23" fill="none"
  xmlns="http://www.w3.org/2000/svg">
  <path fill-rule="evenodd" clip-rule="evenodd" d="M11.1416 19.2646C15.5 19.2646 19.0331 15.7314 19.0331 11.373C19.0331 7.01466 15.5 3.48149 11.1416 3.48149C6.78321 3.48149 3.25005 7.01466 3.25005 11.373C3.25005 15.7314 6.78321 19.2646 11.1416 19.2646ZM11.1416 20.6572C16.2691 20.6572 20.4258 16.5005 20.4258 11.373C20.4258 6.24553 16.2691 2.08887 11.1416 2.08887C6.01409 2.08887 1.85742 6.24553 1.85742 11.373C1.85742 16.5005 6.01409 20.6572 11.1416 20.6572Z" fill="#13263D"/>
  <path fill-rule="evenodd" clip-rule="evenodd" d="M11.1411 16.0146C13.7049 16.0146 15.7832 13.9363 15.7832 11.3726C15.7832 8.8088 13.7049 6.73047 11.1411 6.73047C8.57736 6.73047 6.49902 8.8088 6.49902 11.3726C6.49902 13.9363 8.57736 16.0146 11.1411 16.0146Z" fill="#13263D"/>
</svg>
