<svg width="23" height="23" viewBox="0 0 23 23" fill="none"
  xmlns="http://www.w3.org/2000/svg">
  <path d="M11.1406 2.51074C6.02149 2.51074 1.85645 6.67578 1.85645 11.7949C1.85645 16.914 6.02149 21.0791 11.1406 21.0791C16.2597 21.0791 20.4248 16.914 20.4248 11.7949C20.4248 6.67578 16.2597 2.51074 11.1406 2.51074ZM11.1406 3.93908C15.487 3.93908 18.9964 7.44854 18.9964 11.7949C18.9964 16.1413 15.487 19.6507 11.1406 19.6507C6.79424 19.6507 3.28478 16.1413 3.28478 11.7949C3.28478 7.44854 6.79424 3.93908 11.1406 3.93908ZM11.1406 6.08158C9.17666 6.08158 7.56978 7.68845 7.56978 9.65241C7.56978 10.7348 8.07472 11.6973 8.84189 12.3529C7.43638 13.0825 6.42359 14.4588 6.19182 16.0822C6.13608 16.4727 6.46119 16.7941 6.85561 16.7941V16.7941C7.25004 16.7941 7.56231 16.4712 7.63948 16.0844C7.96616 14.4469 9.40312 13.2232 11.1406 13.2232C12.8781 13.2232 14.3151 14.4469 14.6417 16.0844C14.7189 16.4712 15.0312 16.7941 15.4256 16.7941V16.7941C15.82 16.7941 16.1451 16.4727 16.0894 16.0822C15.8576 14.4588 14.8448 13.0825 13.4393 12.3529C14.2065 11.6973 14.7114 10.7348 14.7114 9.65241C14.7114 7.68845 13.1046 6.08158 11.1406 6.08158ZM11.1406 7.50991C12.3318 7.50991 13.2831 8.4612 13.2831 9.65241C13.2831 10.8436 12.3318 11.7949 11.1406 11.7949C9.94941 11.7949 8.99811 10.8436 8.99811 9.65241C8.99811 8.4612 9.94941 7.50991 11.1406 7.50991Z" fill="black"/>
</svg>
