<svg width="23" height="24" viewBox="0 0 23 24" fill="none" xmlns="http://www.w3.org/2000/svg">
<path d="M16.2925 10.5688C16.0559 10.5824 15.9009 10.5062 15.8818 10.4926L14.7068 11.2433C14.9652 11.6486 15.4983 11.9233 16.0967 11.9587C16.1429 11.9614 16.1892 11.9614 16.2354 11.9614C17.0215 11.9614 17.794 11.5643 18.3788 10.8571C19.377 9.64397 20.0787 8.35742 20.1087 8.30302L20.4242 7.71823L19.8557 7.37551C16.7005 5.47969 14.8972 6.38 14.2689 6.856C13.4583 7.47071 13.0884 8.4771 13.2924 9.45901C12.6451 9.87244 12.0004 10.3947 11.4863 11.0312C11.1899 10.3376 10.7275 9.71469 10.1889 9.16525C10.2379 9.03741 10.2705 8.91229 10.2923 8.81982C10.3032 8.77086 10.314 8.72462 10.3276 8.68382C10.684 7.48975 10.1944 6.09712 9.10909 5.22129C8.33662 4.59842 6.14161 3.36899 2.4506 5.40353L1.97461 5.66465L2.11061 6.18688C2.13781 6.29296 2.79604 8.77358 4.10435 10.226C4.6701 10.8544 5.38001 11.2079 6.16064 11.246C6.2096 11.2487 6.25856 11.2487 6.3048 11.2487C7.18063 11.2487 7.93135 10.8598 8.23598 10.5824L7.30031 9.55149C7.28943 9.55965 6.11985 10.3811 5.14066 9.29309C4.38178 8.45262 3.86499 7.10351 3.62019 6.36368C6.25584 5.09345 7.71375 5.88497 8.23326 6.30384C8.84254 6.79616 9.14445 7.52239 9.01933 8.15342C7.52063 7.04367 5.95937 6.42352 5.83425 6.37728L5.33105 7.67471C6.7536 8.22414 10.4446 10.1934 10.4446 12.6414V14.831C9.9142 14.9697 9.43005 15.2553 9.06557 15.666C8.73918 15.5082 8.38014 15.4266 8.00751 15.4266C7.012 15.4266 6.1552 16.025 5.77713 16.8845C5.59489 16.841 5.40993 16.8192 5.22225 16.8192C3.87859 16.8192 2.78516 17.9127 2.78516 19.2563V19.6045H4.17779V19.2563C4.17779 18.6797 4.64562 18.2119 5.22225 18.2119C5.50241 18.2119 5.71729 18.3288 5.84785 18.4268L6.96304 17.8719V17.861C6.96576 17.2871 7.43359 16.8192 8.00751 16.8192C8.28766 16.8192 8.5515 16.9308 8.75006 17.132L9.87885 16.9362C10.1073 16.4412 10.6024 16.1229 11.1409 16.1229C11.6468 16.1229 12.1147 16.4058 12.3595 16.8628L13.4583 17.0314C13.597 16.8954 13.782 16.8192 13.9751 16.8192C14.3831 16.8192 14.7177 17.1538 14.7177 17.5618C14.7177 17.6434 14.7014 17.725 14.6687 17.8148L15.7866 18.5736C15.9716 18.4077 16.2817 18.2119 16.7114 18.2119C17.4784 18.2119 18.104 18.8375 18.104 19.6045H19.4967C19.4967 18.0677 18.2482 16.8192 16.7114 16.8192C16.4721 16.8192 16.2354 16.8519 16.0097 16.9117C15.7322 16.0495 14.9244 15.4266 13.9751 15.4266C13.6841 15.4266 13.4066 15.4837 13.1455 15.5925C12.7892 15.2199 12.335 14.9615 11.8372 14.831V14.034H11.8399V13.8055C11.8399 10.9142 16.3877 9.52973 16.434 9.51613L16.0423 8.18062C15.9716 8.19966 15.4031 8.37374 14.6551 8.71646C14.7095 8.42814 14.8591 8.15886 15.1121 7.96846C15.8492 7.40815 17.1004 7.51423 18.5338 8.23774C18.2536 8.6947 17.8184 9.35021 17.3044 9.97308C16.9209 10.4382 16.5428 10.5552 16.2925 10.5688ZM9.38925 8.33838L9.39741 8.44718C9.36205 8.41998 9.32397 8.39278 9.28861 8.36286C9.32125 8.3547 9.35117 8.3411 9.38925 8.33838Z" fill="#13263D"/>
</svg>
