<svg width="23" height="23" viewBox="0 0 23 23" fill="none" xmlns="http://www.w3.org/2000/svg">
<path fill-rule="evenodd" clip-rule="evenodd" d="M11.1406 19.6865C15.499 19.6865 19.0322 16.1533 19.0322 11.7949C19.0322 7.43653 15.499 3.90337 11.1406 3.90337C6.78223 3.90337 3.24907 7.43653 3.24907 11.7949C3.24907 16.1533 6.78223 19.6865 11.1406 19.6865ZM11.1406 21.0791C16.2681 21.0791 20.4248 16.9224 20.4248 11.7949C20.4248 6.66741 16.2681 2.51074 11.1406 2.51074C6.01311 2.51074 1.85645 6.66741 1.85645 11.7949C1.85645 16.9224 6.01311 21.0791 11.1406 21.0791Z" fill="black"/>
<path fill-rule="evenodd" clip-rule="evenodd" d="M11.1404 14.1158C12.4223 14.1158 13.4615 13.0766 13.4615 11.7947C13.4615 10.5128 12.4223 9.47368 11.1404 9.47368C9.85855 9.47368 8.81938 10.5128 8.81938 11.7947C8.81938 13.0766 9.85855 14.1158 11.1404 14.1158ZM11.1404 15.5084C13.1914 15.5084 14.8541 13.8457 14.8541 11.7947C14.8541 9.74372 13.1914 8.08105 11.1404 8.08105C9.08942 8.08105 7.42676 9.74372 7.42676 11.7947C7.42676 13.8457 9.08942 15.5084 11.1404 15.5084Z" fill="black"/>
<path d="M6.54465 16.3904C4.00666 13.8524 4.00666 9.73748 6.54465 7.19949L7.41997 8.07481C5.36541 10.1294 5.36541 13.4605 7.41997 15.515L6.54465 16.3904Z" fill="black"/>
<path d="M15.7355 16.3904C18.2735 13.8524 18.2735 9.73748 15.7355 7.19949L14.8602 8.07481C16.9147 10.1294 16.9147 13.4605 14.8602 15.515L15.7355 16.3904Z" fill="black"/>
</svg>
