<svg width="23" height="23" viewBox="0 0 23 23" fill="none"
  xmlns="http://www.w3.org/2000/svg">
  <path d="M10.4446 3.0166V3.79995C9.98494 3.88971 9.53887 4.04747 9.16079 4.30043L8.6168 3.75643L7.61585 4.73562L8.1816 5.30138C7.94497 5.66041 7.77089 6.06569 7.68113 6.49816H6.96306V7.89079H7.68113C7.77089 8.32327 7.94497 8.72854 8.1816 9.08758L7.61585 9.65333L8.6168 10.6325L9.16079 10.0885C9.53887 10.3415 9.98494 10.4992 10.4446 10.589V11.3724H11.8372V10.589C12.2616 10.4965 12.6614 10.3442 13.0123 10.1103L13.5345 10.6325L14.5137 9.65333L13.9915 9.1311C14.2417 8.76118 14.4212 8.34231 14.5137 7.89079H15.3188V6.49816H14.5137C14.4212 6.04665 14.2417 5.62777 13.9915 5.25786L14.5137 4.73562L13.5345 3.75643L13.0123 4.27867C12.6614 4.04475 12.2616 3.89243 11.8372 3.79995V3.0166H10.4446ZM11.0974 5.10554C12.2588 5.10554 13.1864 6.03305 13.1864 7.19448C13.1864 8.35591 12.2588 9.28342 11.0974 9.28342C9.93598 9.28342 9.00847 8.35591 9.00847 7.19448C9.00847 6.03305 9.93598 5.10554 11.0974 5.10554ZM5.57043 11.3724V12.1339C5.1026 12.2237 4.6674 12.3978 4.2866 12.6562L3.74261 12.1122L2.74166 13.0914L3.30741 13.6571C3.07078 14.0189 2.8967 14.4187 2.80694 14.8539H2.08887V16.2465H2.80694C2.8967 16.6817 3.07078 17.0816 3.30741 17.4433L2.74166 18.0091L3.74261 18.9883L4.2866 18.4443C4.6674 18.7027 5.1026 18.8768 5.57043 18.9665V19.7281H6.96306V18.9448C7.38737 18.8523 7.78721 18.7 8.13808 18.466L8.66032 18.9883L9.63951 18.0091L9.11727 17.4868C9.36479 17.1224 9.54431 16.7117 9.63951 16.2683L10.4664 16.2465L10.4229 14.8539L9.63951 14.8757C9.54703 14.416 9.37295 13.989 9.11727 13.6136L9.63951 13.0914L8.66032 12.1122L8.13808 12.6344C7.78721 12.4005 7.38737 12.2482 6.96306 12.1557V11.3724H5.57043ZM15.3188 11.3724V12.1557C14.8591 12.2455 14.4131 12.4032 14.035 12.6562L13.491 12.1122L12.49 13.0914L13.0558 13.6571C12.8192 14.0162 12.6451 14.4214 12.5553 14.8539H11.8372V16.2465H12.5553C12.6451 16.679 12.8192 17.0843 13.0558 17.4433L12.49 18.0091L13.491 18.9883L14.035 18.4443C14.4131 18.6972 14.8591 18.855 15.3188 18.9448V19.7281H16.7114V18.9448C17.133 18.8523 17.5138 18.6755 17.8647 18.4443L18.4087 18.9883L19.3879 18.0091L18.8657 17.4868C19.1159 17.1224 19.2927 16.7144 19.3879 16.2683L20.2148 16.2465L20.1712 14.8539L19.3879 14.8757C19.2981 14.4214 19.0941 14.008 18.8439 13.6354L19.3879 13.0914L18.4087 12.1122L17.8647 12.6562C17.5193 12.4304 17.1249 12.2699 16.7114 12.1775V11.3724H15.3188ZM6.22322 13.4613C7.38465 13.4613 8.31216 14.3888 8.31216 15.5502C8.31216 16.7117 7.38465 17.6392 6.22322 17.6392C5.0618 17.6392 4.13429 16.7117 4.13429 15.5502C4.13429 14.3888 5.0618 13.4613 6.22322 13.4613ZM15.9716 13.4613C17.133 13.4613 18.0605 14.3888 18.0605 15.5502C18.0605 16.7117 17.133 17.6392 15.9716 17.6392C14.8102 17.6392 13.8827 16.7117 13.8827 15.5502C13.8827 14.3888 14.8102 13.4613 15.9716 13.4613Z" fill="#13263D"/>
</svg>
