<svg width="23" height="23" viewBox="0 0 23 23" fill="none"
  xmlns="http://www.w3.org/2000/svg">
  <g clip-path="url(#clip0_4319_613902)">
    <path d="M17.4295 3.31152L16.7114 3.63792C14.4973 4.61439 11.2986 4.98159 8.57323 5.94446C7.21053 6.42589 5.94846 7.0678 5.00463 8.09867C4.0608 9.12954 3.48145 10.5494 3.48145 12.3636C3.48145 14.2404 4.58575 15.5269 5.6139 16.2586C6.05182 16.5714 6.47613 16.7971 6.83245 16.9549C6.40269 17.7519 6.08446 18.4699 5.87502 19.0874C5.49422 20.1998 5.43439 21.0702 5.46158 21.6985C5.48878 22.3268 5.57038 22.7566 5.57038 22.743L6.96301 22.8736C7.00653 22.3704 6.87597 22.1065 6.85421 21.6332C6.83245 21.16 6.87325 20.5099 7.20237 19.5443C7.8606 17.6159 9.6857 14.4416 14.4266 9.36074L13.4257 8.40331C10.5833 11.4497 8.74731 13.8242 7.55052 15.7364C7.24589 15.614 6.83789 15.4263 6.41901 15.1271C5.61118 14.5532 4.87407 13.7127 4.87407 12.3636C4.87407 10.8295 5.31199 9.81769 6.02734 9.03434C6.74269 8.25099 7.78444 7.69068 9.03019 7.25004C11.285 6.45309 14.0757 6.05053 16.472 5.1611C16.6951 6.00701 17.4077 8.90378 17.4077 13.4298C17.4077 15.9975 16.8066 17.469 16.1021 18.2822C15.3976 19.0955 14.549 19.3267 13.7956 19.3267C13.0449 19.3267 12.2343 18.9432 11.5326 18.4563C10.8308 17.9694 10.3467 17.4608 9.85706 17.1507L9.11723 18.3258C9.24234 18.4046 9.93594 19.0466 10.7492 19.6096C11.5625 20.1726 12.5933 20.7193 13.7956 20.7193C14.8672 20.7193 16.1783 20.3413 17.1683 19.1962C18.1584 18.051 18.8003 16.2123 18.8003 13.4298C18.8003 7.98443 17.6471 4.07312 17.6471 4.07312L17.4295 3.31152Z" fill="#13263D"/>
  </g>
  <defs>
    <clipPath id="clip0_4319_613902">
      <rect width="22.282" height="22.282" fill="white" transform="translate(0 0.526367)"/>
    </clipPath>
  </defs>
</svg>
