<svg width="23" height="23" viewBox="0 0 23 23" fill="none"
  xmlns="http://www.w3.org/2000/svg">
  <path fill-rule="evenodd" clip-rule="evenodd" d="M11.1416 19.5595C15.5 19.5595 19.0331 16.0263 19.0331 11.668C19.0331 7.30958 15.5 3.77641 11.1416 3.77641C6.78321 3.77641 3.25005 7.30958 3.25005 11.668C3.25005 16.0263 6.78321 19.5595 11.1416 19.5595ZM11.1416 20.9521C16.2691 20.9521 20.4258 16.7955 20.4258 11.668C20.4258 6.54045 16.2691 2.38379 11.1416 2.38379C6.01409 2.38379 1.85742 6.54045 1.85742 11.668C1.85742 16.7955 6.01409 20.9521 11.1416 20.9521Z" fill="#13263D"/>
  <path fill-rule="evenodd" clip-rule="evenodd" d="M8.10173 11.6675L11.1411 14.7069L14.1805 11.6675L11.1411 8.6281L8.10173 11.6675ZM6.75837 11.0414C6.41258 11.3872 6.41258 11.9478 6.75837 12.2936L10.515 16.0502C10.8608 16.396 11.4214 16.396 11.7672 16.0502L15.5238 12.2936C15.8696 11.9478 15.8696 11.3872 15.5238 11.0414L11.7672 7.28473C11.4214 6.93894 10.8608 6.93894 10.515 7.28473L6.75837 11.0414Z" fill="#13263D"/>
</svg>
