<svg width="32" height="16" viewBox="0 0 32 16" fill="none" xmlns="http://www.w3.org/2000/svg">
<path d="M16.1279 15.5849C15.5306 15.5951 14.8682 15.56 14.208 15.4943C11.158 15.1912 8.3448 14.2237 5.78038 12.569C4.00569 11.4241 2.45621 10.0357 1.15096 8.3867C1.03518 8.23998 0.925163 8.0893 0.815145 7.93805C0.727591 7.81852 0.725864 7.83835 0.812842 7.71769C1.22412 7.14781 1.67744 6.61193 2.16244 6.10153C3.73035 4.44969 5.53327 3.10374 7.58331 2.08125C9.0435 1.35333 10.5763 0.827073 12.1805 0.500217C12.8026 0.373326 13.4293 0.27306 14.0606 0.211314C14.9546 0.12351 15.8508 0.0810244 16.75 0.113314C17.2563 0.131441 17.762 0.156932 18.2655 0.209615C21.1882 0.516645 23.8954 1.4349 26.3746 2.99101C28.2674 4.17891 29.9102 5.63929 31.2794 7.39253C31.3721 7.51092 31.4608 7.63215 31.5484 7.75451C31.6353 7.87573 31.6399 7.85024 31.5507 7.97543C31.3468 8.26094 31.1313 8.53795 30.9032 8.80532C28.5727 11.5306 25.711 13.4969 22.2745 14.6389C21.2705 14.9725 20.2418 15.2105 19.1934 15.3668C18.1992 15.5164 17.1999 15.5923 16.1279 15.5849ZM12.7674 2.5384C12.9016 2.52707 13.0249 2.5197 13.1476 2.50667C13.5278 2.46589 13.9091 2.4404 14.2916 2.46362C14.4022 2.47042 14.511 2.49081 14.6136 2.53273C14.7818 2.60071 14.8445 2.69928 14.8077 2.87432C14.7702 3.05049 14.833 3.18418 14.9534 3.30314C15.0283 3.37735 15.1181 3.43343 15.2028 3.49631C15.2466 3.5286 15.2898 3.56372 15.3272 3.60281C15.3722 3.65039 15.3681 3.70137 15.3192 3.74612C15.299 3.76425 15.2765 3.78068 15.2529 3.79428C15.0145 3.93136 14.776 4.06845 14.5369 4.20384C14.4609 4.24689 14.3814 4.28201 14.2991 4.31147C14.2547 4.32733 14.2098 4.33413 14.1637 4.32959C14.1188 4.32506 14.0859 4.30127 14.0663 4.26218C14.0439 4.21743 14.0709 4.18401 14.0997 4.15342C14.1476 4.103 14.2075 4.06845 14.2685 4.03616C14.3981 3.96762 14.53 3.90304 14.6579 3.8311C14.7149 3.79881 14.8042 3.76935 14.7864 3.69118C14.7691 3.61414 14.6786 3.60507 14.6061 3.58864C14.4765 3.55919 14.3463 3.57562 14.223 3.6079C13.7812 3.72403 13.3342 3.79654 12.8769 3.81807C12.571 3.83223 12.2916 3.93419 12.0463 4.11717C11.7951 4.3041 11.8066 4.48934 12.0791 4.64116C12.2853 4.75615 12.5111 4.81733 12.7404 4.87001C12.8803 4.9023 13.0042 4.87511 13.1182 4.79184C13.2115 4.72386 13.2893 4.64059 13.363 4.55335C13.4045 4.50407 13.4477 4.45762 13.5047 4.42533C13.6101 4.36585 13.7628 4.37888 13.84 4.45422C13.8728 4.48594 13.8947 4.5188 13.8394 4.55165C13.6556 4.65985 13.5088 4.80883 13.3596 4.95838C13.2098 5.1085 13.0186 5.14702 12.825 5.06658C12.5445 4.95045 12.26 4.96405 11.9697 4.99917C11.8568 5.01277 11.76 5.05978 11.6655 5.1187C11.5382 5.19914 11.4161 5.28807 11.2715 5.34132C11.1154 5.39854 11.0976 5.43139 11.1442 5.5934C11.1748 5.69877 11.1298 5.76731 11.0549 5.83019C10.9801 5.8925 10.8988 5.93272 10.8032 5.87834C10.6396 5.78487 10.4668 5.7962 10.2929 5.82962C10.059 5.87494 9.9778 5.9888 10.0043 6.22446C10.0083 6.26015 10.017 6.29583 10.0285 6.32982C10.0901 6.51676 10.2215 6.57397 10.3908 6.47314C10.5089 6.4029 10.6339 6.37174 10.7658 6.34738C11.0757 6.2896 11.3752 6.20746 11.616 5.98767C11.6845 5.92536 11.7669 5.92819 11.8475 5.97124C11.9362 6.01883 11.9933 6.0936 12.0359 6.18141C12.109 6.33265 12.1874 6.48164 12.2865 6.61872C12.3181 6.66291 12.351 6.70766 12.4011 6.73485C12.45 6.76148 12.4817 6.74392 12.4835 6.68953C12.4858 6.62892 12.4593 6.57454 12.4397 6.51959C12.4126 6.44255 12.374 6.36891 12.3671 6.28677C12.3613 6.22049 12.4028 6.19387 12.4604 6.22786C12.495 6.24825 12.5255 6.27827 12.5526 6.3083C12.5981 6.35928 12.6384 6.41479 12.6822 6.46748C12.7772 6.58247 12.7784 6.58247 12.9195 6.51676C12.9443 6.50543 12.9702 6.49467 12.9967 6.48787C13.1649 6.44482 13.2766 6.52356 13.2962 6.69293C13.3112 6.81982 13.2559 6.91273 13.1591 6.98637C12.9552 7.14272 12.7283 7.2022 12.4719 7.14215C12.2559 7.09173 12.0503 7.01356 11.8487 6.92519C11.4466 6.74845 11.0233 6.64705 10.5924 6.56831C10.555 6.56151 10.5204 6.56151 10.4841 6.57454C10.3937 6.6074 10.3021 6.63799 10.2099 6.66688C10.1719 6.67877 10.1477 6.70086 10.1304 6.73598C10.0584 6.8844 9.95476 7.01243 9.84647 7.13592C9.78541 7.20503 9.75949 7.28037 9.75546 7.37044C9.74105 7.66444 9.73011 7.95787 9.74797 8.25244C9.78886 8.93674 9.93632 9.59556 10.1938 10.2317C10.2174 10.2901 10.2318 10.3552 10.309 10.3716C10.4098 10.3932 10.5077 10.4492 10.6149 10.3886C10.7422 10.3167 10.8723 10.2487 11.0019 10.1796C11.0503 10.1535 11.0987 10.1275 11.1494 10.106C11.2548 10.0612 11.3476 10.0805 11.4219 10.1683C11.4662 10.2209 11.5158 10.2708 11.5757 10.3037C11.7225 10.3841 11.7876 10.507 11.8003 10.6685C11.8095 10.7863 11.8487 10.8055 11.9668 10.7704C11.9841 10.7653 12.0019 10.7597 12.0186 10.7523C12.1286 10.7064 12.1857 10.7721 12.2064 10.8503C12.2237 10.9154 12.2317 10.9834 12.2427 11.0508C12.2605 11.1675 12.2807 11.2831 12.3279 11.3924C12.3498 11.4434 12.3804 11.5051 12.4385 11.5017C12.5359 11.4967 12.5244 11.5516 12.5278 11.6116C12.5422 11.8513 12.5445 12.0914 12.6021 12.3265C12.6246 12.4194 12.6522 12.5101 12.7035 12.5922C12.753 12.6715 12.8204 12.7146 12.9189 12.7134C12.9984 12.7123 13.0744 12.6998 13.1511 12.6828C13.5456 12.5979 13.8354 12.3843 13.9978 12.0133C14.0398 11.9175 14.0796 11.8212 14.1095 11.721C14.1366 11.6298 14.1625 11.538 14.1925 11.4479C14.2138 11.3828 14.238 11.3069 14.3008 11.2797C14.4494 11.2145 14.4851 11.0894 14.5104 10.9523C14.5168 10.9166 14.5272 10.8815 14.541 10.848C14.6297 10.643 14.6527 10.4288 14.6343 10.2091C14.6141 9.97113 14.6971 9.774 14.8722 9.61198C14.9592 9.53098 15.0444 9.44827 15.1314 9.36727C15.3388 9.17466 15.318 8.92372 15.0801 8.77757C15.0058 8.73225 14.9263 8.69543 14.8526 8.64897C14.4793 8.41672 14.2703 8.07967 14.2017 7.65481C14.1919 7.59306 14.1833 7.51206 14.2455 7.48317C14.2973 7.45937 14.3376 7.52849 14.3739 7.56701C14.5462 7.74941 14.7149 7.93521 14.8877 8.11762C15.1343 8.37877 15.299 8.40709 15.6222 8.24904C15.6965 8.21279 15.7662 8.1686 15.8307 8.11649C15.8883 8.07004 15.9384 8.01735 15.9758 7.95391C16.0507 7.82702 16.0432 7.70183 15.9522 7.5874C15.9125 7.53755 15.8693 7.49053 15.8232 7.44578C15.5945 7.22259 15.3635 7.0011 15.1348 6.77734C15.083 6.72636 15.0381 6.66857 14.9931 6.61079C14.9609 6.56944 14.9402 6.52016 14.9805 6.47484C15.0208 6.42895 15.0749 6.44652 15.121 6.46691C15.2051 6.5043 15.28 6.55924 15.3509 6.61646C15.5081 6.74448 15.6798 6.84815 15.8698 6.92179C16.0887 7.00619 16.2195 7.15518 16.2581 7.39083C16.2915 7.59533 16.4188 7.74431 16.6077 7.83665C16.6814 7.8729 16.7598 7.90123 16.8375 7.92785C16.9723 7.97374 17.1088 8.01395 17.2442 8.05871C17.5109 8.14708 17.7453 8.2853 17.9325 8.49489C17.951 8.51529 17.97 8.53511 17.9913 8.55211C18.0869 8.62745 18.1745 8.63141 18.2424 8.53341C18.4106 8.29096 18.5944 8.05021 18.4936 7.72335C18.4596 7.61289 18.4924 7.55624 18.5904 7.4962C18.7758 7.38177 19.0506 7.40386 19.1606 7.6735C19.2804 7.9675 19.4002 8.26151 19.5149 8.55777C19.5632 8.6824 19.6301 8.79399 19.7222 8.89086C19.9319 9.11065 20.1709 9.29306 20.4324 9.44884C20.4716 9.47206 20.5114 9.49529 20.5586 9.50152C20.6663 9.51568 20.7262 9.45904 20.7153 9.3531C20.7078 9.28399 20.6767 9.22281 20.6444 9.16277C20.573 9.03078 20.4987 8.90049 20.4255 8.76963C20.376 8.68013 20.3449 8.5861 20.3593 8.483C20.3818 8.31985 20.4319 8.16577 20.5212 8.02472C20.5857 7.92332 20.6703 7.85647 20.7948 7.83948C21.0096 7.81002 21.1962 7.71316 21.3737 7.59646C21.5764 7.46277 21.5908 7.40329 21.4664 7.1988C21.3967 7.0838 21.3489 6.96371 21.3518 6.82719C21.3535 6.75071 21.342 6.65838 21.4238 6.62212C21.5148 6.5819 21.5764 6.65951 21.634 6.71729C21.6789 6.76204 21.7141 6.81756 21.7613 6.86004C21.9888 7.06284 22.369 6.96427 22.4433 6.68217C22.4756 6.55924 22.4831 6.43462 22.4485 6.3066C22.1294 5.12096 21.5315 4.09394 20.6139 3.26349C19.0886 1.88298 17.2886 1.32954 15.2322 1.60711C14.382 1.72154 13.5934 2.01214 12.8602 2.44833C12.8296 2.46645 12.7922 2.47722 12.7674 2.5384ZM19.0564 11.3018C19.0592 11.3828 19.0638 11.478 19.099 11.568C19.1698 11.7499 19.2176 11.9385 19.2637 12.1277C19.2724 12.1628 19.2821 12.1979 19.296 12.2314C19.3467 12.3537 19.41 12.3826 19.5339 12.335C19.5892 12.3135 19.641 12.2841 19.6928 12.2552C19.7528 12.2217 19.8098 12.1827 19.8697 12.1498C19.9048 12.1305 19.9434 12.0965 19.9843 12.1198C20.0315 12.1475 19.997 12.1928 19.9924 12.2302C19.986 12.279 19.9924 12.3231 20.0379 12.3486C20.0811 12.373 20.126 12.3685 20.1675 12.339C20.1784 12.3311 20.1905 12.3243 20.2009 12.3152C20.2798 12.245 20.3685 12.2506 20.4589 12.2852C20.5148 12.3067 20.5695 12.3299 20.6225 12.3566C20.6997 12.3951 20.7556 12.3764 20.8155 12.3152C21.4105 11.7091 21.8702 11.0168 22.1887 10.2345C22.206 10.1926 22.2227 10.1513 22.2204 10.1043C22.2094 9.90429 22.1328 9.72641 22.028 9.5593C21.9842 9.48962 21.9422 9.48113 21.8633 9.51965C21.8016 9.54967 21.744 9.58706 21.687 9.62558C21.4174 9.80685 21.1219 9.92411 20.8011 9.98359C20.4756 10.0436 20.1554 10.1235 19.8426 10.2317C19.4141 10.379 19.0708 10.8412 19.0564 11.3018ZM20.0793 12.9327C20.0068 12.8704 19.9267 12.8341 19.842 12.816C19.5028 12.7435 19.1756 12.7667 18.868 12.9417C18.7038 13.0352 18.5575 13.1519 18.4129 13.2709C18.152 13.485 18.2073 13.5025 17.8225 13.3858C17.5195 13.2946 17.2223 13.1853 16.9193 13.093C16.4965 12.9644 16.0674 12.8636 15.6187 12.8902C15.3071 12.9089 15.0104 12.9842 14.7409 13.1434C14.5467 13.2578 14.3941 13.4113 14.3037 13.6187C14.2155 13.8203 14.2789 13.9512 14.4937 14.0073C15.3762 14.2378 16.2679 14.295 17.1728 14.1568C18.1814 14.0027 19.1001 13.634 19.9325 13.0556C19.9803 13.0222 20.0344 12.9938 20.0793 12.9327ZM22.4894 9.17806C22.524 9.14237 22.5291 9.10612 22.536 9.071C22.6265 8.58949 22.6651 8.10402 22.6449 7.61459C22.6386 7.45824 22.5741 7.32512 22.4681 7.21296C22.3759 7.11552 22.2584 7.07021 22.1219 7.07304C22.066 7.07417 22.0447 7.09853 22.0683 7.15008C22.0931 7.20333 22.1207 7.25601 22.1495 7.30699C22.2014 7.39876 22.2025 7.4775 22.1294 7.56644C21.994 7.73128 21.9456 7.93012 21.9589 8.13858C21.9808 8.48413 22.1219 8.7838 22.3391 9.05174C22.3788 9.10046 22.4191 9.15031 22.4894 9.17806ZM11.2974 4.33526C11.158 4.35622 11.0066 4.36925 10.8654 4.43099C10.7877 4.46498 10.7226 4.51483 10.6777 4.58564C10.5077 4.85528 10.362 5.13796 10.2393 5.43139C10.2042 5.5158 10.2209 5.53619 10.3113 5.54015C10.4161 5.54469 10.4956 5.4903 10.5722 5.43196C10.7295 5.313 10.8649 5.16968 11.0025 5.02976C11.1125 4.91816 11.2318 4.8213 11.3712 4.74822C11.4484 4.70743 11.5232 4.66268 11.5872 4.60264C11.6621 4.53296 11.6592 4.48821 11.5791 4.42476C11.5008 4.36245 11.4057 4.34602 11.2974 4.33526ZM14.7541 10.852C14.7587 10.95 14.7432 11.0418 14.7829 11.1273C14.8146 11.1947 14.8584 11.2026 14.9091 11.1483C14.9592 11.0939 14.9868 11.0259 15.015 10.9596C15.0922 10.7761 15.1504 10.5852 15.2103 10.396C15.2552 10.2532 15.3019 10.1127 15.3814 9.98359C15.4246 9.91392 15.4551 9.83857 15.4678 9.75644C15.4781 9.68789 15.4856 9.61708 15.424 9.56837C15.3589 9.51682 15.284 9.53211 15.2161 9.56553C15.0611 9.64201 14.9459 9.75927 14.9021 9.92468C14.8215 10.2311 14.7691 10.5427 14.7541 10.852ZM11.7675 3.28445C11.6379 3.28501 11.4881 3.3309 11.4259 3.40567C11.2951 3.56315 11.169 3.72516 11.0451 3.88831C10.9973 3.95119 11.0089 4.00274 11.0716 4.05315C11.1431 4.11037 11.2266 4.1302 11.3176 4.1115C11.4633 4.08204 11.5924 4.01407 11.722 3.94382C11.8994 3.84809 11.9691 3.69854 11.9812 3.51104C11.9921 3.35526 11.9253 3.28388 11.7675 3.28445ZM17.7056 8.90559C17.7661 8.90729 17.8248 8.90276 17.8813 8.8784C17.9855 8.83365 18.008 8.77077 17.9481 8.6739C17.894 8.58666 17.8139 8.52775 17.7229 8.48073C17.5674 8.40029 17.4516 8.41672 17.3168 8.58326C17.2477 8.6688 17.2626 8.73961 17.3554 8.80079C17.4602 8.87047 17.5795 8.90106 17.7056 8.90559ZM21.24 9.50549C21.2947 9.50435 21.3495 9.50662 21.4025 9.48623C21.5211 9.44034 21.547 9.3701 21.4762 9.26587C21.4186 9.18146 21.3385 9.12255 21.2458 9.07836C21.0874 9.00189 20.9814 9.02851 20.8518 9.18543C20.7827 9.26927 20.7976 9.34291 20.8892 9.40352C20.9946 9.47206 21.1127 9.50662 21.24 9.50549ZM20.9209 8.8767C20.9716 8.8784 21.0211 8.87387 21.0684 8.85347C21.1185 8.83195 21.1421 8.79513 21.1225 8.74584C21.0592 8.58893 20.9509 8.46827 20.7901 8.40709C20.6842 8.36687 20.592 8.43881 20.5926 8.54418C20.5943 8.72432 20.74 8.87217 20.9209 8.8767Z" fill="white"/>
</svg>
