<svg width="22" height="22" viewBox="0 0 22 22" fill="none" xmlns="http://www.w3.org/2000/svg">
<path d="M4.53389 10.8981C4.50739 7.61938 7.25037 4.86857 10.6604 4.86914C14.0047 4.86914 16.7909 7.53384 16.7897 10.9004C16.7886 14.2817 13.9845 16.9373 10.6442 16.93C7.25843 16.9221 4.50682 14.1871 4.53389 10.8981ZM9.70707 8.46173C9.70707 8.33031 9.70707 8.19889 9.70707 8.06747C9.70707 7.8658 9.70592 7.86297 9.51122 7.93774C8.14031 8.464 7.31431 9.82751 7.51073 11.2686C7.61268 12.0198 7.9508 12.6582 8.52682 13.1629C9.30501 13.8455 10.2168 14.1038 11.2427 13.9226C12.8682 13.6359 14.1032 12.1002 13.7875 10.2954C13.6775 9.66606 13.3855 9.12168 12.9322 8.6651C12.5958 8.32634 12.2006 8.07256 11.7456 7.91338C11.631 7.87316 11.6166 7.88279 11.616 8.00062C11.6142 8.28612 11.6212 8.57163 11.6125 8.85713C11.6091 8.97779 11.6546 9.04294 11.7577 9.10468C13.0399 9.87169 13.0888 11.7042 11.8544 12.5426C11.0999 13.0553 10.0291 13.0417 9.27794 12.3987C8.5343 11.762 8.3494 10.6597 8.84938 9.82297C9.03544 9.51198 9.28312 9.26103 9.60166 9.08032C9.67942 9.03614 9.71283 8.98402 9.7088 8.89565C9.70246 8.75177 9.70707 8.60675 9.70707 8.46173ZM10.2122 8.28159C10.2122 8.62091 10.2088 8.9608 10.214 9.30012C10.2174 9.53011 10.4138 9.72214 10.6442 9.7346C10.8551 9.74593 11.0659 9.57599 11.1045 9.3596C11.1137 9.30635 11.1143 9.2514 11.1143 9.19759C11.1148 8.59089 11.1148 7.98419 11.1143 7.3775C11.1143 7.33218 11.1154 7.28629 11.1091 7.24211C11.0682 6.95264 10.7767 6.77307 10.5089 6.8705C10.3349 6.93395 10.2151 7.09822 10.2134 7.29026C10.2099 7.62052 10.2122 7.95134 10.2122 8.28159Z" fill="white"/>
<path d="M19.5033 11.3488C19.0661 11.3488 18.6283 11.3505 18.1911 11.3483C17.9728 11.3471 17.7781 11.2021 17.7119 11.0016C17.6468 10.8045 17.7148 10.5852 17.8835 10.4527C17.9849 10.3734 18.1013 10.3416 18.2309 10.3422C18.7326 10.3439 19.2343 10.3428 19.7366 10.3428C20.0954 10.3428 20.4549 10.3399 20.8137 10.3439C21.1092 10.3473 21.3379 10.5886 21.3235 10.8736C21.3102 11.1307 21.0913 11.346 20.8293 11.3483C20.3875 11.3511 19.9457 11.3488 19.5033 11.3488Z" fill="white"/>
<path d="M11.1747 2.14901C11.1747 2.56083 11.1742 2.97266 11.1753 3.38506C11.1753 3.47683 11.1649 3.5652 11.1235 3.64903C11.0186 3.86033 10.7807 3.97306 10.5469 3.92151C10.3199 3.87166 10.1529 3.67509 10.1529 3.4434C10.1512 2.57896 10.1506 1.71395 10.1529 0.849509C10.1535 0.594028 10.3591 0.383299 10.6177 0.361207C10.8666 0.339681 11.1022 0.51019 11.1598 0.751509C11.1747 0.813821 11.1747 0.877267 11.1747 0.940712C11.1747 1.34348 11.1747 1.74624 11.1747 2.14901Z" fill="white"/>
<path d="M10.1514 19.5388C10.1514 19.1134 10.1496 18.688 10.1519 18.2625C10.1537 17.9685 10.3887 17.7504 10.6859 17.7601C10.9336 17.7686 11.1479 17.9685 11.1726 18.2155C11.1755 18.2427 11.1749 18.2699 11.1749 18.2971C11.1749 19.1298 11.1738 19.9631 11.1755 20.7958C11.1761 21.0111 11.0868 21.172 10.8956 21.2745C10.5736 21.4478 10.1583 21.2173 10.1531 20.8564C10.1467 20.4168 10.1519 19.9778 10.1514 19.5388Z" fill="white"/>
<path d="M1.8123 11.349C1.37971 11.349 0.947123 11.3513 0.514536 11.3484C0.213857 11.3467 -0.00790791 11.1184 0.000732295 10.8261C0.00764446 10.5803 0.209249 10.3684 0.459239 10.3452C0.491496 10.3424 0.523753 10.3429 0.556009 10.3429C1.39814 10.3429 2.24085 10.3441 3.08298 10.3418C3.28977 10.3412 3.45048 10.416 3.55819 10.5893C3.76153 10.9156 3.52766 11.3422 3.13828 11.3479C2.6959 11.3535 2.2541 11.3484 1.8123 11.349Z" fill="white"/>
<path d="M4.62613 7.12138C4.62728 7.54963 4.21601 7.78982 3.86867 7.60175C3.55417 7.43124 3.24485 7.25223 2.93323 7.07662C2.4897 6.82681 2.04559 6.57869 1.60321 6.32718C1.40564 6.21501 1.30772 6.00598 1.34688 5.79922C1.4114 5.46103 1.78523 5.28146 2.09225 5.44744C2.40272 5.61512 2.70858 5.79129 3.01617 5.96463C3.44761 6.20765 3.87904 6.45067 4.3099 6.69369C4.33812 6.70955 4.3652 6.72598 4.39285 6.74297C4.55125 6.8404 4.62267 6.98429 4.62613 7.12138Z" fill="white"/>
<path d="M7.42129 17.3026C7.43223 17.404 7.37694 17.4992 7.32222 17.5938C7.05034 18.0611 6.77846 18.5285 6.506 18.9964C6.3597 19.2479 6.21224 19.4988 6.06766 19.7509C5.99566 19.8761 5.8937 19.96 5.75143 19.9951C5.54521 20.0455 5.36319 19.9996 5.22956 19.8359C5.09189 19.6671 5.0556 19.475 5.1662 19.2785C5.34879 18.9539 5.53888 18.6333 5.72666 18.3109C5.97377 17.8866 6.22261 17.4635 6.46799 17.0386C6.55439 16.8885 6.68457 16.8064 6.85449 16.7866C7.17245 16.748 7.42071 16.9707 7.42129 17.3026Z" fill="white"/>
<path d="M19.9729 5.87041C19.9556 6.05904 19.8871 6.20859 19.7189 6.30376C18.9764 6.72295 18.2333 7.14215 17.4926 7.56417C17.3445 7.64857 17.1942 7.68086 17.0306 7.62422C16.829 7.55397 16.7075 7.41349 16.689 7.20446C16.6718 7.00619 16.7426 6.83625 16.9218 6.72918C17.1262 6.60683 17.3353 6.4924 17.5433 6.37514C18.098 6.06188 18.6567 5.75485 19.2062 5.43195C19.4505 5.28864 19.8761 5.4008 19.955 5.74352C19.9648 5.78713 19.9677 5.83245 19.9729 5.87041Z" fill="white"/>
<path d="M5.58736 1.69043C5.79069 1.69779 5.94852 1.7754 6.05335 1.95554C6.4508 2.63928 6.85056 3.32188 7.24973 4.00448C7.2866 4.06736 7.32577 4.12911 7.3586 4.19369C7.47899 4.42934 7.38855 4.72504 7.15872 4.85477C6.92198 4.98845 6.60863 4.91594 6.46923 4.68426C6.24632 4.31435 6.03146 3.93991 5.81315 3.56717C5.59945 3.20235 5.38863 2.83584 5.17205 2.47273C5.0724 2.30619 5.06261 2.13908 5.14671 1.96744C5.23484 1.78843 5.38518 1.69836 5.58736 1.69043Z" fill="white"/>
<path d="M15.7207 19.9981C15.5185 19.9975 15.3699 19.9097 15.2691 19.7375C15.0042 19.282 14.7375 18.8272 14.4713 18.3723C14.3083 18.0936 14.1447 17.816 13.9829 17.5367C13.8648 17.3322 13.8959 17.1017 14.0439 16.9323C14.2519 16.6944 14.7029 16.7386 14.8625 17.0207C15.0681 17.3843 15.2835 17.7429 15.4943 18.1038C15.7075 18.4686 15.9194 18.834 16.1349 19.1976C16.2167 19.3359 16.2616 19.4758 16.2121 19.6372C16.1424 19.8627 15.9621 19.9992 15.7207 19.9981Z" fill="white"/>
<path d="M1.35449 15.8344C1.35449 15.6321 1.43859 15.4803 1.62061 15.3778C2.34754 14.9688 3.07332 14.5581 3.79794 14.1457C3.94195 14.0641 4.08768 14.0069 4.25645 14.059C4.45172 14.1197 4.59111 14.2369 4.62164 14.442C4.65505 14.6652 4.59111 14.8555 4.37972 14.975C3.84172 15.2804 3.30372 15.5851 2.76515 15.8899C2.54166 16.0162 2.32047 16.1459 2.09409 16.2666C1.76289 16.4445 1.35737 16.2049 1.35449 15.8344Z" fill="white"/>
<path d="M14.3978 4.90878C14.0119 4.90821 13.7665 4.50545 13.9571 4.17349C14.3874 3.42518 14.8229 2.67969 15.2583 1.93421C15.3977 1.69516 15.7169 1.61075 15.9542 1.74331C16.1961 1.87926 16.286 2.18289 16.1483 2.42761C15.9807 2.72445 15.8056 3.01675 15.6345 3.31131C15.3764 3.75487 15.1184 4.19898 14.8597 4.6431C14.7538 4.82607 14.6074 4.90934 14.3978 4.90878Z" fill="white"/>
<path d="M17.2191 14.0327C17.3118 14.0231 17.4034 14.0622 17.4932 14.1132C18.0209 14.4106 18.5491 14.7074 19.0767 15.0048C19.2927 15.1266 19.5047 15.2546 19.7247 15.3685C19.9949 15.5078 20.026 15.8681 19.9177 16.0562C19.7817 16.2907 19.4701 16.3796 19.2201 16.2408C18.67 15.9361 18.1234 15.6256 17.5756 15.3175C17.3677 15.2002 17.1626 15.0779 16.9512 14.9674C16.7571 14.866 16.6523 14.6264 16.7168 14.3805C16.7727 14.1698 16.9697 14.0344 17.2191 14.0327Z" fill="white"/>
</svg>
