<svg width="19" height="18" viewBox="0 0 19 18" xmlns="http://www.w3.org/2000/svg">
<path d="M11.4336 4.21875C11.2103 3.99546 10.8483 3.99546 10.625 4.21875V4.21875C10.4017 4.44204 10.4017 4.80406 10.625 5.02734L14.0352 8.4375H3.3125C3.00184 8.4375 2.75 8.68934 2.75 9V9C2.75 9.31066 3.00184 9.5625 3.3125 9.5625H14.0352L10.625 12.9727C10.4017 13.1959 10.4017 13.558 10.625 13.7812V13.7812C10.8483 14.0045 11.2103 14.0045 11.4336 13.7812L15.8105 9.4043V9.4043C16.0268 9.17816 16.0268 8.82184 15.8105 8.5957V8.5957L11.4336 4.21875Z"/>
</svg>
