<svg width="30" height="22" viewBox="0 0 30 22" fill="none" xmlns="http://www.w3.org/2000/svg">
<path d="M10.7031 21.625C11.1993 22.1212 12.0038 22.1212 12.5 21.625V21.625C12.9962 21.1288 12.9962 20.3243 12.5 19.8281L4.92188 12.25L28.75 12.25C29.4404 12.25 30 11.6904 30 11V11C30 10.3096 29.4404 9.75 28.75 9.75L4.92188 9.75L12.5 2.17188C12.9962 1.67568 12.9962 0.871196 12.5 0.375002V0.375002C12.0038 -0.121191 11.1993 -0.121191 10.7031 0.375002L0.976564 10.1016V10.1016C0.495892 10.6041 0.495892 11.3959 0.976564 11.8984V11.8984L10.7031 21.625Z" fill="black"/>
</svg>
