<svg xmlns="http://www.w3.org/2000/svg" viewBox="0 0 21 20">
  <path fill-rule="evenodd" clip-rule="evenodd" d="M10.6667 18.5C15.3612 18.5 19.1667 14.6944 19.1667 10C19.1667 5.30558 15.3612 1.5 10.6667 1.5C5.97233 1.5 2.16675 5.30558 2.16675 10C2.16675 14.6944 5.97233 18.5 10.6667 18.5ZM10.6667 20C16.1896 20 20.6667 15.5228 20.6667 10C20.6667 4.47715 16.1896 0 10.6667 0C5.1439 0 0.666748 4.47715 0.666748 10C0.666748 15.5228 5.1439 20 10.6667 20Z" fill="white"/>
  <path fill-rule="evenodd" clip-rule="evenodd" d="M10.6667 12.5C12.0475 12.5 13.1667 11.3807 13.1667 10C13.1667 8.61929 12.0475 7.5 10.6667 7.5C9.28604 7.5 8.16675 8.61929 8.16675 10C8.16675 11.3807 9.28604 12.5 10.6667 12.5ZM10.6667 14C12.8759 14 14.6667 12.2091 14.6667 10C14.6667 7.79086 12.8759 6 10.6667 6C8.45761 6 6.66675 7.79086 6.66675 10C6.66675 12.2091 8.45761 14 10.6667 14Z" fill="white"/>
  <path d="M5.71708 14.9497C2.98341 12.2161 2.98341 7.78392 5.71708 5.05025L6.65989 5.99306C4.44692 8.20603 4.44692 11.794 6.65989 14.0069L5.71708 14.9497Z" fill="white"/>
  <path d="M15.6166 14.9497C18.3502 12.2161 18.3502 7.78392 15.6166 5.05025L14.6738 5.99306C16.8867 8.20603 16.8867 11.794 14.6738 14.0069L15.6166 14.9497Z" fill="white"/>
</svg>