    <svg
      xmlns="http://www.w3.org/2000/svg"
      viewBox="0 0 25 24"
    >
      <path
        d="M17.1934 12.0002C17.1934 14.6843 15.0175 16.8601 12.3334 16.8601C9.64935 16.8601 7.47348 14.6843 7.47348 12.0002C7.47348 9.3161 9.64935 7.14023 12.3334 7.14023C15.0175 7.14023 17.1934 9.3161 17.1934 12.0002Z"
      />
      <path
        fillRule="evenodd"
        clipRule="evenodd"
        d="M2.61353 12.0002C2.61353 6.63155 6.9648 2.28027 12.3334 2.28027C17.7021 2.28027 22.0533 6.63155 22.0533 12.0002C22.0533 17.3688 17.7021 21.7201 12.3334 21.7201C6.9648 21.7201 2.61353 17.3688 2.61353 12.0002ZM20.2859 12.0002C20.2859 7.61488 16.7187 4.04768 12.3334 4.04768C7.94813 4.04768 4.38093 7.61488 4.38093 12.0002C4.38093 16.3855 7.94813 19.9527 12.3334 19.9527C16.7187 19.9527 20.2859 16.3855 20.2859 12.0002Z"
      />
    </svg>