<svg width="50" height="37" viewBox="0 0 50 37" fill="none" xmlns="http://www.w3.org/2000/svg">
<path fill-rule="evenodd" clip-rule="evenodd" d="M23.7374 23.1397V23.123C23.7279 22.6306 23.7038 22.131 23.6629 21.6365C23.5308 20.0242 23.2289 18.4304 22.7667 16.8992C22.7536 16.8554 22.7399 16.8115 22.726 16.7677L22.687 16.6463L22.6681 16.5891C21.5685 13.1268 19.6103 9.92287 17.0053 7.32469C14.4329 4.75771 11.3981 2.88605 7.98808 1.76185C7.95179 1.74986 7.91515 1.73796 7.87829 1.72627C7.84327 1.71509 7.80806 1.70411 7.77278 1.69313L7.74968 1.68592L7.71972 1.67646L7.65158 1.65562C6.64105 1.33928 5.59801 1.09144 4.55184 0.918731C4.27509 0.872885 3.9973 0.832325 3.7258 0.796848C3.72056 0.795831 3.71531 0.794815 3.71112 0.795831C3.34737 0.799999 2.99515 0.874918 2.6639 1.01866C2.07267 1.27473 1.60304 1.72434 1.31896 2.28232L1.31623 2.28608C1.31519 2.28751 1.31429 2.28893 1.31372 2.29066L1.29727 2.32512C1.29246 2.33549 1.28777 2.34586 1.28332 2.35623L1.26235 2.39994C0.822076 3.33475 0.625 4.03424 0.625 5.47905C0.625 7.04361 0.771761 8.61539 1.06004 10.1508L1.06947 10.2018L1.08782 10.2985C1.09921 10.3589 1.11063 10.4194 1.12293 10.4797C1.48144 12.2567 2.03493 13.9929 2.76767 15.6407L2.76826 15.6414L2.76886 15.6428L2.76977 15.6449L2.77243 15.6508L2.77657 15.6581C2.7798 15.6632 2.78354 15.6679 2.78759 15.6719L2.79029 15.6742L2.79135 15.6751L2.79388 15.6771C2.80017 15.6834 2.80751 15.6886 2.8159 15.6938C2.81752 15.6949 2.81943 15.6957 2.82132 15.6965C2.82309 15.6972 2.82486 15.698 2.82638 15.699C2.83371 15.7021 2.8421 15.7043 2.85048 15.7063C2.85258 15.7063 2.85468 15.7083 2.85782 15.7083L2.86411 15.7271C2.8689 15.7438 2.87402 15.7601 2.8791 15.7761L2.89032 15.8124L2.89383 15.8236C2.89898 15.84 2.90426 15.8567 2.91024 15.8728C2.92072 15.902 2.93225 15.9312 2.94273 15.9603L2.94992 15.9792C2.95456 15.9916 2.95919 16.004 2.96475 16.0165C2.97838 16.0488 2.99305 16.08 3.00773 16.1123L3.0131 16.1235L3.01821 16.1347C3.02162 16.1422 3.02503 16.1497 3.02869 16.157C3.05071 16.2039 3.07482 16.2496 3.09997 16.2945C3.15868 16.3996 3.22472 16.5015 3.296 16.5984C3.47002 16.8315 3.67862 17.0345 3.91763 17.2032C3.93335 17.2188 3.95641 17.2344 3.9973 17.2573C4.00906 17.2654 4.02134 17.2724 4.03377 17.2794L4.04971 17.2885C4.08011 17.3072 4.11051 17.326 4.14196 17.3437L4.1505 17.3483C4.17806 17.3634 4.20561 17.3784 4.23316 17.3926C4.24782 17.4004 4.26248 17.4079 4.27713 17.4152C4.29392 17.4235 4.31072 17.4317 4.32751 17.4395C4.33432 17.4426 4.34087 17.446 4.34742 17.4494C4.35398 17.4527 4.36053 17.4562 4.36734 17.4592C6.336 18.3982 8.16524 18.929 10.3918 19.2008C9.07619 19.6557 7.92623 20.5196 7.11801 21.673C7.04987 21.7708 6.98488 21.8677 6.92618 21.9623C6.26996 23.0106 5.92403 24.2191 5.92403 25.4547C5.92403 25.9512 5.98168 26.4509 6.09489 26.9423C6.21859 27.4773 6.40938 27.9946 6.66201 28.4828C6.99432 29.1229 7.4262 29.7028 7.9472 30.2056C8.4336 30.7968 8.95459 31.3714 9.4976 31.9128C11.0082 33.42 12.7588 34.7233 14.7002 35.7913C15.1247 36.0567 15.6206 36.2035 16.1437 36.2035C16.1636 36.2035 16.1835 36.2025 16.2024 36.2025L16.2244 36.2013C16.2515 36.2006 16.2788 36.1995 16.3061 36.1979C16.3613 36.1946 16.4167 36.1896 16.4707 36.1826C16.9969 36.1191 17.4802 35.9057 17.8744 35.5821C19.7508 34.1726 21.0905 32.5165 22.2069 30.2254L22.2558 30.1232C22.2882 30.0552 22.3201 29.9872 22.3515 29.9193V29.9183C22.5098 29.5737 22.6576 29.2198 22.7887 28.8659V28.8648C23.4218 27.1618 23.7436 25.3725 23.7436 23.5446C23.7436 23.4717 23.7426 23.3989 23.7415 23.326C23.7395 23.2646 23.7384 23.2021 23.7374 23.1397ZM7.78262 2.26565C14.5943 4.51303 19.952 9.9062 22.1419 16.7181C22.1387 16.7202 22.1356 16.7212 22.1314 16.7232C20.8819 14.2261 18.975 12.113 16.6101 10.6088C14.1488 9.04326 11.3006 8.21569 8.37384 8.21569C7.02681 8.21569 5.69131 8.39267 4.39984 8.73819C4.81915 7.461 5.35376 6.21808 5.99531 5.0398C6.08546 4.90755 6.16513 4.76605 6.23117 4.61824C6.69555 3.80734 7.2176 3.01617 7.78262 2.26565ZM7.23332 2.09081C6.96077 2.45829 6.69975 2.834 6.45131 3.21297C6.38946 2.65184 6.15255 2.12618 5.77517 1.70462C6.26891 1.81807 6.75741 1.94717 7.23332 2.09081ZM3.68072 1.32779C3.92287 1.36001 4.1755 1.39752 4.4512 1.44337C5.34014 1.7462 5.9366 2.5759 5.9366 3.51275C5.9366 3.77715 5.88943 4.03525 5.79509 4.28298C5.67873 4.48497 5.57495 4.66917 5.48061 4.84513C5.0613 5.38847 4.42919 5.69974 3.74467 5.69974C2.536 5.69974 1.55272 4.71918 1.55272 3.51376C1.55272 2.34057 2.50665 1.36215 3.68072 1.32779ZM1.15648 5.47905C1.15648 5.13037 1.16486 4.77743 1.18058 4.42357C1.55797 5.47386 2.56641 6.22956 3.74467 6.22956C4.15349 6.22956 4.55393 6.13696 4.91978 5.96099C4.46902 6.92071 4.08326 7.91377 3.77401 8.91832C3.01192 9.15772 2.2624 9.45963 1.54434 9.81664C1.28751 8.3885 1.15648 6.93017 1.15648 5.47905ZM2.80332 14.301C2.30853 13.0227 1.91962 11.6997 1.64707 10.359C2.27288 10.0394 2.92701 9.76561 3.59476 9.5377C3.16497 11.0876 2.89976 12.6865 2.80332 14.301ZM3.2981 15.1473C3.30229 14.9828 3.30858 14.8183 3.31592 14.6539C3.47631 13.5942 4.40718 12.7948 5.48271 12.7948C6.69136 12.7948 7.67465 13.7754 7.67465 14.9808C7.67465 16.1862 6.69136 17.1668 5.48271 17.1668C4.34218 17.1688 3.38301 16.2808 3.2981 15.1473ZM6.10328 17.6258C7.30984 17.3426 8.20612 16.2518 8.20612 14.9818C8.20612 13.4839 6.98383 12.265 5.48271 12.265C4.68811 12.265 3.94698 12.6085 3.43228 13.1977C3.57799 11.8923 3.83901 10.5973 4.21219 9.3409C5.56133 8.94638 6.96182 8.74551 8.37489 8.74551C14.0398 8.74551 19.1166 11.887 21.6523 16.9502C18.9457 18.2014 16.0546 18.8364 13.0565 18.8364C10.6696 18.8375 8.33296 18.4294 6.10328 17.6258ZM8.40634 29.9131C7.93566 29.3426 7.48491 28.7368 7.06665 28.1133C6.65887 27.2794 6.45236 26.3853 6.45236 25.4547C6.45236 24.3493 6.75426 23.2656 7.32557 22.3204C7.38427 22.2237 7.44507 22.1279 7.50797 22.0373C8.64954 20.3655 10.5354 19.3673 12.5544 19.3673C15.9193 19.3673 18.6564 22.0977 18.6564 25.4547C18.6564 26.6237 18.3199 27.7614 17.6846 28.7451C17.6228 28.8409 17.5599 28.9336 17.4949 29.021C16.9037 29.8339 16.1143 30.495 15.2149 30.9321C15.0933 30.9759 14.9748 31.029 14.8627 31.0882C14.1278 31.3891 13.3511 31.5411 12.5554 31.5411C11.0134 31.5421 9.53953 30.9634 8.40634 29.9131ZM13.633 34.5473C12.265 33.6687 10.9924 32.6456 9.84248 31.4932C10.6926 31.8742 11.6183 32.0741 12.5544 32.0741C13.0114 32.0741 13.4653 32.0262 13.9098 31.9346C13.5901 32.3895 13.416 32.9307 13.416 33.4887C13.416 33.853 13.4915 34.2132 13.633 34.5473ZM16.1405 35.6737C14.9318 35.6737 13.9486 34.6931 13.9486 33.4877C13.9486 32.6903 14.3847 31.9565 15.087 31.5713C15.2117 31.5192 15.3218 31.4714 15.4224 31.4225C15.6541 31.3423 15.8952 31.3017 16.1405 31.3017C17.3492 31.3017 18.3324 32.2823 18.3324 33.4877C18.3314 34.6931 17.3481 35.6737 16.1405 35.6737ZM23.2059 23.9277C23.1535 25.9679 22.6901 27.9374 21.8274 29.7819C21.8038 29.8325 21.7798 29.8826 21.7557 29.9325C21.7316 29.9822 21.7073 30.0318 21.6827 30.0817C20.9489 31.564 19.9793 32.9016 18.7989 34.0654C18.8409 33.8759 18.8639 33.6834 18.8639 33.4877C18.8639 32.1073 17.8167 30.9571 16.4728 30.7916C17.0567 30.3649 17.5641 29.8474 17.9834 29.2531C18.0515 29.1563 18.1165 29.0595 18.1763 28.9638C18.8388 27.9113 19.1889 26.6986 19.1889 25.4558C19.1889 22.7275 17.4666 20.2604 14.9423 19.283C17.3544 19.0685 19.6858 18.4461 21.8819 17.43C22.709 19.2403 23.1545 21.1692 23.2059 23.1647C23.209 23.2916 23.2111 23.4186 23.2111 23.5467L23.2097 23.6992C23.2092 23.7446 23.2086 23.7901 23.2078 23.8356L23.2059 23.9277Z" fill="white"/>
<path d="M34.7191 32.0906C34.5933 32.0397 34.4759 31.9897 34.369 31.9387C34.1404 31.8617 33.893 31.82 33.6435 31.82C32.4087 31.82 31.4044 32.8038 31.4044 34.0122C31.4044 35.2208 32.4087 36.2045 33.6435 36.2045C34.8784 36.2045 35.8827 35.2208 35.8827 34.0122C35.8827 33.2138 35.4361 32.478 34.7191 32.0906Z" fill="white"/>
<path d="M31.6403 29.6706C32.0533 30.2451 32.5471 30.7521 33.111 31.1778C31.7231 31.4266 30.6968 32.6164 30.6989 34.0144C30.6989 34.1404 30.7084 34.2694 30.7272 34.4005C29.5616 33.24 28.5992 31.9138 27.8634 30.4575L27.8623 30.4565C27.8109 30.3545 27.7606 30.2514 27.7114 30.1483C26.8057 28.2486 26.3182 26.2198 26.2637 24.1172C26.2605 23.9859 26.2585 23.8548 26.2585 23.7237C26.2585 23.6363 26.2594 23.5488 26.2609 23.4614L26.2637 23.3302C26.3161 21.3003 26.7732 19.3351 27.6233 17.4874C29.8383 18.4846 32.1864 19.1112 34.608 19.3538C32.0523 20.4479 30.3551 22.9617 30.3551 25.6993C30.3551 26.9985 30.7283 28.2673 31.4338 29.3676C31.4569 29.4037 31.4804 29.4396 31.5042 29.4753L31.5416 29.5306L31.5677 29.5685C31.5916 29.603 31.6158 29.637 31.6403 29.6706Z" fill="white"/>
<path d="M44.9481 4.32466C45.3769 4.86587 46.0216 5.17714 46.7187 5.17714C47.9535 5.17714 48.9578 4.19343 48.9578 2.98496C48.9578 1.8139 47.986 0.832223 46.79 0.795831C46.5394 0.828056 46.2773 0.866583 45.9912 0.913445C45.0865 1.21841 44.4796 2.05014 44.4796 2.98598C44.4796 3.24824 44.5278 3.50645 44.6211 3.75214C44.7416 3.95718 44.8496 4.14555 44.9481 4.32466Z" fill="white"/>
<path d="M42.6828 22.1935L42.6922 22.207C42.7562 22.2997 42.8191 22.3955 42.8778 22.4922C43.4743 23.4593 43.7887 24.5679 43.7887 25.6993C43.7887 26.6508 43.5739 27.5668 43.1535 28.4111C42.7143 29.0553 42.2404 29.6799 41.7519 30.2618C40.5695 31.3371 39.0338 31.9294 37.4257 31.9294C36.5955 31.9294 35.7862 31.7733 35.0262 31.4682C34.9046 31.4048 34.7767 31.3486 34.652 31.3049C33.7127 30.8573 32.8898 30.1807 32.2735 29.3489C32.2127 29.2678 32.1528 29.1817 32.0938 29.0936L32.0753 29.0658C31.4118 28.0591 31.0616 26.8944 31.0616 25.6983C31.0616 22.2632 33.9171 19.4693 37.4257 19.4693C39.5275 19.4693 41.492 20.4874 42.6828 22.1935Z" fill="white"/>
<path d="M44.3821 1.23305C43.9701 1.32982 43.5592 1.43707 43.1587 1.55366C43.3862 1.85761 43.6074 2.16786 43.8191 2.48014C43.9009 2.02524 44.0928 1.60053 44.3821 1.23305Z" fill="white"/>
<path d="M41.8348 7.78264C38.734 7.78264 35.716 8.64253 33.1079 10.2705C30.8394 11.6852 28.9661 13.6234 27.6485 15.9073C30.093 9.26395 35.5629 4.01858 42.4312 1.77852C43.0183 2.54673 43.556 3.34929 44.0288 4.15917C44.1001 4.31531 44.185 4.46515 44.2793 4.59943C44.9293 5.77263 45.4796 7.01342 45.9146 8.29172C44.5823 7.95444 43.2101 7.78264 41.8348 7.78264Z" fill="white"/>
<path d="M36.151 32.506C36.4382 32.9609 36.5892 33.4782 36.5892 34.0122C36.5892 34.3256 36.5378 34.6337 36.4351 34.9293C37.7004 34.1153 38.887 33.1836 39.9678 32.1542C39.1596 32.4591 38.2874 32.6195 37.4247 32.6195C37.0001 32.6195 36.5724 32.582 36.151 32.506Z" fill="white"/>
<path d="M46.7176 5.8694C47.8466 5.8694 48.8718 5.22918 49.3624 4.24862C49.3708 4.51404 49.375 4.77326 49.375 5.02313C49.375 6.4835 49.2429 7.95749 48.984 9.40545C48.2607 9.05779 47.508 8.76218 46.7449 8.52482C46.4388 7.55564 46.0625 6.59389 45.6253 5.66223C45.9744 5.79967 46.3402 5.8694 46.7176 5.8694Z" fill="white"/>
<path d="M47.7617 13.8201C48.2198 12.6126 48.5846 11.3667 48.8477 10.1112C48.2513 9.81563 47.6254 9.55437 46.9828 9.33368C47.3864 10.7942 47.6474 12.3004 47.7617 13.8201Z" fill="white"/>
<path d="M44.8852 11.9746C43.2615 11.9746 41.9396 13.2674 41.9396 14.8579C41.9396 16.104 42.7887 17.224 43.989 17.605C41.71 18.3847 39.3252 18.7792 36.8963 18.7792C33.7725 18.7792 30.7556 18.1348 27.9284 16.8638C30.6004 11.6883 35.9225 8.47592 41.8348 8.47592C43.3034 8.47592 44.7605 8.67791 46.1673 9.07761C46.531 10.2892 46.7942 11.5415 46.9503 12.8052C46.401 12.2754 45.661 11.9746 44.8852 11.9746Z" fill="white"/>
<path d="M44.8852 12.6657C43.6504 12.6657 42.6461 13.6494 42.6461 14.8579C42.6461 16.0665 43.6504 17.0502 44.8852 17.0502C46.0499 17.0502 47.03 16.1602 47.117 15.0245C47.1128 14.861 47.1065 14.6914 47.0981 14.5227C46.9346 13.4673 45.9828 12.6657 44.8852 12.6657Z" fill="white"/>
<path d="M26.7612 14.0171C26.919 14.9823 26.2589 15.8919 25.2868 16.0486C24.3147 16.2052 23.3988 15.5496 23.241 14.5844C23.0833 13.6191 23.7434 12.7096 24.7155 12.553C25.6876 12.3963 26.6035 13.0518 26.7612 14.0171Z" fill="white"/>
</svg>
