<svg width="32" height="32" viewBox="0 0 32 32" fill="none" xmlns="http://www.w3.org/2000/svg">
<path fill-rule="evenodd" clip-rule="evenodd" d="M19.2583 25.6374C15.9468 25.6374 13.2527 22.9546 13.2527 19.657C13.2527 16.3594 15.9468 13.6766 19.2583 13.6766C22.5698 13.6766 25.264 16.3594 25.264 19.657C25.264 22.9546 22.5698 25.6374 19.2583 25.6374ZM9.56919 23.4844C8.99517 23.4844 8.52821 23.0194 8.52821 22.4478C8.52821 21.8762 8.99517 21.4112 9.56919 21.4112H12.6836C12.8856 22.1613 13.2138 22.8603 13.6442 23.4844H9.56919ZM9.56919 18.5406H12.5448C12.484 18.9039 12.4519 19.2768 12.4519 19.657C12.4519 19.9818 12.4755 20.3011 12.5201 20.6138H9.56919C8.99517 20.6138 8.52821 20.1488 8.52821 19.5772C8.52821 19.0056 8.99517 18.5406 9.56919 18.5406ZM9.56919 15.67H13.7577C13.3032 16.2901 12.9518 16.9895 12.7286 17.7432H9.56919C8.99517 17.7432 8.52821 17.2782 8.52821 16.7066C8.52821 16.1351 8.99517 15.67 9.56919 15.67ZM9.56919 12.7994H19.3784C19.5397 12.7994 19.6941 12.8367 19.8326 12.9036C19.6433 12.8877 19.4518 12.8792 19.2583 12.8792C17.3788 12.8792 15.6748 13.6419 14.4418 14.8726H9.56919C8.99521 14.8726 8.52821 14.4076 8.52821 13.836C8.52821 13.2645 8.99521 12.7994 9.56919 12.7994ZM7.40716 9.13145C6.83314 9.13145 6.36618 8.66642 6.36618 8.09485C6.36618 7.52329 6.83314 7.05825 7.40716 7.05825H17.2164C17.7904 7.05825 18.2574 7.52329 18.2574 8.09485C18.2574 8.66642 17.7904 9.13145 17.2164 9.13145H7.40716ZM21.9408 9.92884C22.5148 9.92884 22.9818 10.3939 22.9818 10.9654C22.9818 11.537 22.5148 12.002 21.9408 12.002H19.3784H12.1316C11.5576 12.002 11.0906 11.537 11.0906 10.9654C11.0906 10.3939 11.5576 9.92884 12.1316 9.92884H21.9408ZM21.0764 13.1251C21.0276 13.0095 20.9679 12.9005 20.8985 12.7994H21.9408C22.9563 12.7994 23.7825 11.9767 23.7825 10.9654C23.7825 9.9542 22.9563 9.13145 21.9408 9.13145H18.7346C18.9384 8.83634 19.0581 8.47931 19.0581 8.09485C19.0581 7.08361 18.2319 6.26086 17.2164 6.26086H7.40716C6.39165 6.26086 5.56543 7.08361 5.56543 8.09485C5.56543 9.1061 6.39165 9.92884 7.40716 9.92884H10.6134C10.4095 10.224 10.2899 10.581 10.2899 10.9654C10.2899 11.3499 10.4095 11.7069 10.6134 12.002H9.56919C8.55368 12.002 7.72746 12.8248 7.72746 13.836C7.72746 14.4168 8.00028 14.9351 8.42472 15.2713C8.00028 15.6076 7.72746 16.1259 7.72746 16.7066C7.72746 17.2874 8.00028 17.8057 8.42472 18.1419C8.00028 18.4782 7.72746 18.9965 7.72746 19.5772C7.72746 20.158 8.00028 20.6763 8.42472 21.0125C8.00028 21.3488 7.72746 21.8671 7.72746 22.4478C7.72746 23.4591 8.55368 24.2818 9.56919 24.2818H14.2876C15.5307 25.6057 17.299 26.4348 19.2583 26.4348C23.0114 26.4348 26.0647 23.3943 26.0647 19.657C26.0647 16.5465 23.9495 13.9191 21.0764 13.1251Z" fill="#1D1A1A"/>
</svg>
