<svg viewBox="0 0 18 16" xmlns="http://www.w3.org/2000/svg">
<path d="M9 0.5C4.03711 0.5 0 4.53711 0 9.5C0 11.6709 0.776367 13.6631 2.0625 15.2188L2.27344 15.5H15.7266L15.9375 15.2188C17.2236 13.6631 18 11.6709 18 9.5C18 4.53711 13.9629 0.5 9 0.5ZM9 2C13.1514 2 16.5 5.34863 16.5 9.5C16.5 11.1992 15.9053 12.7432 14.9531 14H3.04688C2.09473 12.7432 1.5 11.1992 1.5 9.5C1.5 5.34863 4.84863 2 9 2ZM9 2.75C8.58691 2.75 8.25 3.08691 8.25 3.5C8.25 3.91309 8.58691 4.25 9 4.25C9.41309 4.25 9.75 3.91309 9.75 3.5C9.75 3.08691 9.41309 2.75 9 2.75ZM6 3.54688C5.58691 3.54688 5.25 3.88379 5.25 4.29688C5.25 4.70996 5.58691 5.04688 6 5.04688C6.41309 5.04688 6.75 4.70996 6.75 4.29688C6.75 3.88379 6.41309 3.54688 6 3.54688ZM12 3.54688C11.5869 3.54688 11.25 3.88379 11.25 4.29688C11.25 4.70996 11.5869 5.04688 12 5.04688C12.4131 5.04688 12.75 4.70996 12.75 4.29688C12.75 3.88379 12.4131 3.54688 12 3.54688ZM3.79688 5.75C3.38379 5.75 3.04688 6.08691 3.04688 6.5C3.04688 6.91309 3.38379 7.25 3.79688 7.25C4.20996 7.25 4.54688 6.91309 4.54688 6.5C4.54688 6.08691 4.20996 5.75 3.79688 5.75ZM13.9922 5.77344L9.75 8.21094C9.53027 8.08203 9.27246 8 9 8C8.1709 8 7.5 8.6709 7.5 9.5C7.5 10.3291 8.1709 11 9 11C9.82031 11 10.4883 10.3408 10.5 9.52344C10.5 9.51465 10.5 9.50879 10.5 9.5L14.7422 7.08594L13.9922 5.77344ZM3 8.75C2.58691 8.75 2.25 9.08691 2.25 9.5C2.25 9.91309 2.58691 10.25 3 10.25C3.41309 10.25 3.75 9.91309 3.75 9.5C3.75 9.08691 3.41309 8.75 3 8.75ZM15 8.75C14.5869 8.75 14.25 9.08691 14.25 9.5C14.25 9.91309 14.5869 10.25 15 10.25C15.4131 10.25 15.75 9.91309 15.75 9.5C15.75 9.08691 15.4131 8.75 15 8.75ZM3.79688 11.75C3.38379 11.75 3.04688 12.0869 3.04688 12.5C3.04688 12.9131 3.38379 13.25 3.79688 13.25C4.20996 13.25 4.54688 12.9131 4.54688 12.5C4.54688 12.0869 4.20996 11.75 3.79688 11.75ZM14.2031 11.75C13.79 11.75 13.4531 12.0869 13.4531 12.5C13.4531 12.9131 13.79 13.25 14.2031 13.25C14.6162 13.25 14.9531 12.9131 14.9531 12.5C14.9531 12.0869 14.6162 11.75 14.2031 11.75Z"/>
</svg>
