<svg width="46" height="46" viewBox="0 0 46 46" fill="none" xmlns="http://www.w3.org/2000/svg">
<path d="M23.2472 14C23.2472 13.7929 23.0738 13.625 22.86 13.625C22.6462 13.625 22.4728 13.7929 22.4728 14V18C22.4728 18.2071 22.6462 18.375 22.86 18.375C23.0738 18.375 23.2472 18.2071 23.2472 18V14Z" fill="black"/>
<path d="M18.7298 14.625C18.9436 14.625 19.117 14.7929 19.117 15V18C19.117 18.2071 18.9436 18.375 18.7298 18.375C18.5159 18.375 18.3426 18.2071 18.3426 18V15C18.3426 14.7929 18.5159 14.625 18.7298 14.625Z" fill="black"/>
<path d="M27.3774 15C27.3774 14.7929 27.2041 14.625 26.9902 14.625C26.7764 14.625 26.603 14.7929 26.603 15V18C26.603 18.2071 26.7764 18.375 26.9902 18.375C27.2041 18.375 27.3774 18.2071 27.3774 18V15Z" fill="black"/>
<path fill-rule="evenodd" clip-rule="evenodd" d="M18.3841 5.37427C17.6146 4.95405 16.726 4.71429 15.7796 4.71429C12.8469 4.71429 10.4694 7.01682 10.4694 9.85714C10.4694 12.3047 12.2348 14.3529 14.5996 14.8726V21C14.1678 22.0138 13.9295 23.124 13.9295 24.287C13.9295 27.377 15.6404 30.213 18.3601 31.752C11.7229 33.688 7 39.54 7 46H7.74344C7.74344 39.568 12.6759 33.768 19.4743 32.208C19.6291 32.172 19.7438 32.045 19.7582 31.891C19.7727 31.738 19.6849 31.592 19.5393 31.529C16.5841 30.256 14.675 27.413 14.675 24.288C14.675 23.1159 14.939 22.0024 15.4125 21.0003L14.5996 21H31.1204V14.8726C33.4852 14.3529 35.2506 12.3047 35.2506 9.85714C35.2506 7.01682 32.8731 4.71429 29.9404 4.71429C28.994 4.71429 28.1054 4.95405 27.3359 5.37427C26.3923 3.94645 24.7403 3 22.86 3C20.9797 3 19.3277 3.94645 18.3841 5.37427ZM14.771 14.1412C15.1237 14.2187 15.374 14.5223 15.374 14.8726V20.25H30.346V14.8726C30.346 14.5223 30.5963 14.2187 30.9491 14.1412C32.9689 13.6973 34.4762 11.9468 34.4762 9.85714C34.4762 7.43104 32.4454 5.46429 29.9404 5.46429C29.1307 5.46429 28.3727 5.66909 27.7163 6.02757C27.3584 6.22303 26.9051 6.11374 26.6836 5.77857C25.8764 4.55704 24.4653 3.75 22.86 3.75C21.2547 3.75 19.8436 4.55704 19.0364 5.77857C18.8149 6.11374 18.3616 6.22303 18.0037 6.02757C17.3473 5.66909 16.5893 5.46429 15.7796 5.46429C13.2746 5.46429 11.2438 7.43104 11.2438 9.85714C11.2438 11.9468 12.7511 13.6973 14.771 14.1412Z" fill="black"/>
<path d="M30.3086 21.0003C30.782 22.0024 31.0461 23.1159 31.0461 24.288C31.0461 27.413 29.1369 30.256 26.1828 31.529C26.0372 31.592 25.9484 31.738 25.9639 31.891C25.9783 32.045 26.0929 32.172 26.2478 32.208C33.0441 33.768 37.9766 39.568 37.9766 46H38.72C38.72 39.54 33.9971 33.688 27.3578 31.752C30.0775 30.213 31.7874 27.377 31.7874 24.287C31.7874 23.1241 31.5492 22.0141 31.1175 21.0003H30.3086Z" fill="black"/>
</svg>
