<svg
  xmlns="http://www.w3.org/2000/svg"
  viewBox="0 0 24 25"
>
  <path d="M11.25 4.25C10.2803 4.25 9.4541 4.88281 9.14062 5.75H3V7.25H9.14062C9.4541 8.11719 10.2803 8.75 11.25 8.75C12.2197 8.75 13.0459 8.11719 13.3594 7.25H21V5.75H13.3594C13.0459 4.88281 12.2197 4.25 11.25 4.25ZM11.25 5.75C11.6719 5.75 12 6.07812 12 6.5C12 6.92188 11.6719 7.25 11.25 7.25C10.8281 7.25 10.5 6.92188 10.5 6.5C10.5 6.07812 10.8281 5.75 11.25 5.75ZM16.5 10.25C15.5303 10.25 14.7041 10.8828 14.3906 11.75H3V13.25H14.3906C14.7041 14.1172 15.5303 14.75 16.5 14.75C17.4697 14.75 18.2959 14.1172 18.6094 13.25H21V11.75H18.6094C18.2959 10.8828 17.4697 10.25 16.5 10.25ZM16.5 11.75C16.9219 11.75 17.25 12.0781 17.25 12.5C17.25 12.9219 16.9219 13.25 16.5 13.25C16.0781 13.25 15.75 12.9219 15.75 12.5C15.75 12.0781 16.0781 11.75 16.5 11.75ZM8.25 16.25C7.28027 16.25 6.4541 16.8828 6.14062 17.75H3V19.25H6.14062C6.4541 20.1172 7.28027 20.75 8.25 20.75C9.21973 20.75 10.0459 20.1172 10.3594 19.25H21V17.75H10.3594C10.0459 16.8828 9.21973 16.25 8.25 16.25ZM8.25 17.75C8.67188 17.75 9 18.0781 9 18.5C9 18.9219 8.67188 19.25 8.25 19.25C7.82812 19.25 7.5 18.9219 7.5 18.5C7.5 18.0781 7.82812 17.75 8.25 17.75Z" />
</svg>