<svg width="24" height="25" viewBox="0 0 24 25" xmlns="http://www.w3.org/2000/svg">
<path d="M11.25 4.2002C10.2803 4.2002 9.4541 4.83301 9.14062 5.7002H3V7.2002H9.14062C9.4541 8.06738 10.2803 8.7002 11.25 8.7002C12.2197 8.7002 13.0459 8.06738 13.3594 7.2002H21V5.7002H13.3594C13.0459 4.83301 12.2197 4.2002 11.25 4.2002ZM11.25 5.7002C11.6719 5.7002 12 6.02832 12 6.4502C12 6.87207 11.6719 7.2002 11.25 7.2002C10.8281 7.2002 10.5 6.87207 10.5 6.4502C10.5 6.02832 10.8281 5.7002 11.25 5.7002ZM16.5 10.2002C15.5303 10.2002 14.7041 10.833 14.3906 11.7002H3V13.2002H14.3906C14.7041 14.0674 15.5303 14.7002 16.5 14.7002C17.4697 14.7002 18.2959 14.0674 18.6094 13.2002H21V11.7002H18.6094C18.2959 10.833 17.4697 10.2002 16.5 10.2002ZM16.5 11.7002C16.9219 11.7002 17.25 12.0283 17.25 12.4502C17.25 12.8721 16.9219 13.2002 16.5 13.2002C16.0781 13.2002 15.75 12.8721 15.75 12.4502C15.75 12.0283 16.0781 11.7002 16.5 11.7002ZM8.25 16.2002C7.28027 16.2002 6.4541 16.833 6.14062 17.7002H3V19.2002H6.14062C6.4541 20.0674 7.28027 20.7002 8.25 20.7002C9.21973 20.7002 10.0459 20.0674 10.3594 19.2002H21V17.7002H10.3594C10.0459 16.833 9.21973 16.2002 8.25 16.2002ZM8.25 17.7002C8.67188 17.7002 9 18.0283 9 18.4502C9 18.8721 8.67188 19.2002 8.25 19.2002C7.82812 19.2002 7.5 18.8721 7.5 18.4502C7.5 18.0283 7.82812 17.7002 8.25 17.7002Z"/>
</svg>
