<svg width="16" height="44" viewBox="0 0 16 44" fill="none" xmlns="http://www.w3.org/2000/svg">
<path d="M9.00207 31.1411C6.09995 28.8218 4.71567 25.422 5.72224 22.4606C6.32117 20.6998 7.22943 19.1129 8.25168 17.5393L8.2517 17.5392C8.61504 16.9798 8.99265 16.4204 9.37239 15.8579C10.1567 14.6962 10.95 13.521 11.6453 12.3036L11.6454 12.3036C13.5721 8.92989 13.716 5.46043 12.2413 2.00352C13.3313 3.53549 14.1734 5.11641 14.6975 6.85814C16.2194 11.923 15.4372 16.5142 11.8925 20.5898C9.89517 22.884 8.40871 25.471 8.49584 28.7202L8.49586 28.721C8.51946 29.5414 8.74453 30.3192 9.00207 31.1411Z" stroke="black" stroke-width="0.75"/>
<path d="M4.52932 35.1335C0.184846 31.8061 -0.235709 26.4691 1.56779 22.3213C1.28949 23.822 1.39179 25.2169 1.82936 26.5147C2.33709 28.0207 3.28865 29.3741 4.57869 30.6016L4.57871 30.6016C4.91083 30.9176 5.24411 31.223 5.57428 31.5256C6.42581 32.306 7.25662 33.0674 7.99339 33.9421L7.99372 33.9425C9.43654 35.651 10.079 37.2445 9.98398 38.7941C9.90961 40.0065 9.38082 41.2425 8.34217 42.5316C8.55841 41.1515 8.35211 39.9385 7.83574 38.8494C7.14924 37.4014 5.93109 36.2076 4.52938 35.1335L4.52932 35.1335Z" stroke="black" stroke-width="0.75"/>
</svg>
