<svg width="46" height="46" viewBox="0 0 46 46" fill="none" xmlns="http://www.w3.org/2000/svg">
<rect width="46" height="46" fill="white" style="mix-blend-mode:multiply"/>
<circle cx="14.3478" cy="7.34783" r="1.97283" stroke="black" stroke-width="0.75"/>
<circle cx="19.8261" cy="6.56522" r="1.19022" stroke="black" stroke-width="0.75"/>
<circle cx="28.5915" cy="8.59998" r="1.19022" stroke="black" stroke-width="0.75"/>
<circle cx="32.6612" cy="11.2609" r="1.19022" stroke="black" stroke-width="0.75"/>
<circle cx="24.2084" cy="7.03476" r="1.19022" stroke="black" stroke-width="0.75"/>
<path d="M32.207 20.1683C33.403 16.6127 30.8132 12.4852 26.3803 10.915C21.9123 9.33231 17.2638 10.9469 15.9976 14.5214C15.0466 17.2061 16.2796 20.226 18.8374 22.2439C25.4998 27.5 19.8264 31 19.8264 34.7391C19.8264 38.1969 22.6295 41 26.0872 41C29.545 41 32.3481 38.1969 32.3481 34.7391C32.3481 34.1179 32.2577 33.5179 32.0892 32.9515C30.5001 28 30.0773 26.5 32.207 20.1683Z" stroke="black" stroke-width="0.75"/>
</svg>
