<svg xmlns="http://www.w3.org/2000/svg" width="24" height="24" viewBox="0 0 24 24" fill="none">
  <path d="M12.0268 15.6933C14.0332 15.6933 15.6598 14.0668 15.6598 12.0604C15.6598 10.054 14.0332 8.42749 12.0268 8.42749C10.0204 8.42749 8.39393 10.054 8.39393 12.0604C8.39393 14.0668 10.0204 15.6933 12.0268 15.6933Z" fill="white"/>
  <path d="M21.6586 11.9997C21.6586 11.1105 20.9727 10.3831 20.1011 10.3139C19.4129 7.12987 16.8856 4.62235 13.6896 3.96685C13.6541 3.06358 12.912 2.34131 12.0002 2.34131C11.0834 2.34131 10.3391 3.07012 10.3098 3.97944C7.14076 4.65211 4.63856 7.14656 3.9533 10.311C3.05633 10.3534 2.34131 11.0919 2.34131 11.9997C2.34131 12.8986 3.04229 13.6311 3.92669 13.687C4.57323 16.9119 7.10301 19.464 10.3164 20.1434C10.4054 20.9949 11.125 21.6584 12 21.6584C12.8701 21.6584 13.5868 21.0012 13.6814 20.156C16.9223 19.4947 19.478 16.9296 20.1275 13.6843C20.9867 13.6025 21.6586 12.88 21.6586 11.9997ZM13.6647 19.6636C13.522 18.8728 12.8316 18.2728 12.0002 18.2728C11.1724 18.2728 10.4848 18.8668 10.3374 19.6513C7.36893 18.9912 5.03369 16.6312 4.4128 13.6483C5.16532 13.4762 5.72742 12.8045 5.72742 11.9997C5.72742 11.2046 5.17839 10.5394 4.43942 10.3577C5.0983 7.42071 7.42168 5.10701 10.3643 4.46337C10.5547 5.18976 11.2138 5.72645 12.0002 5.72645C12.7905 5.72645 13.4528 5.18396 13.6388 4.45152C16.6012 5.07846 18.9452 7.39652 19.6118 10.3444C18.847 10.507 18.2728 11.186 18.2728 11.9995C18.2728 12.8224 18.8605 13.5074 19.6389 13.6599C19.0103 16.6547 16.6538 19.0202 13.6647 19.6636Z" fill="white"/>
  <path fill-rule="evenodd" clip-rule="evenodd" d="M19.5136 10.3684C18.7983 10.566 18.2728 11.2212 18.2728 11.9995C18.2728 12.787 18.811 13.4483 19.5396 13.6373C19.5577 13.642 19.5759 13.6464 19.5943 13.6505C19.6091 13.6538 19.624 13.6569 19.6389 13.6599C19.6389 13.6599 19.6389 13.6599 19.6389 13.6599C19.5986 13.852 19.5511 14.0416 19.4969 14.2283C18.7596 16.7642 16.7633 18.7687 14.233 19.5185C14.0464 19.5738 13.8568 19.6222 13.6647 19.6636C13.6588 19.6306 13.6519 19.598 13.644 19.5658C13.643 19.5616 13.642 19.5575 13.641 19.5533C13.4567 18.8177 12.7925 18.2728 12.0002 18.2728C11.2112 18.2728 10.5495 18.8124 10.3616 19.5423C10.3607 19.546 10.3597 19.5498 10.3588 19.5536C10.3507 19.5858 10.3436 19.6184 10.3374 19.6513C10.1456 19.6086 9.95641 19.5588 9.77017 19.5023C7.25988 18.7399 5.28297 16.7408 4.55378 14.2165C4.52755 14.1256 4.50292 14.0341 4.47995 13.942C4.45572 13.8448 4.43332 13.7469 4.4128 13.6483C4.44591 13.6407 4.47865 13.6321 4.51099 13.6227C5.2137 13.4169 5.72742 12.7691 5.72742 11.9997C5.72742 11.2398 5.22595 10.5986 4.53646 10.3847C4.50451 10.3748 4.47215 10.3658 4.43942 10.3577C4.4625 10.2548 4.48762 10.1527 4.51474 10.0514C4.53807 9.96427 4.56289 9.8777 4.58915 9.79177C5.40375 7.12625 7.61344 5.06506 10.3643 4.46337C10.3728 4.49609 10.3824 4.52842 10.3928 4.56033C10.6143 5.23702 11.2492 5.72645 12.0002 5.72645C12.7552 5.72645 13.3934 5.23129 13.6111 4.5484C13.6213 4.51651 13.6305 4.4842 13.6388 4.45152C16.4088 5.03773 18.6381 7.10251 19.461 9.77824C19.5181 9.96411 19.5685 10.1529 19.6118 10.3444C19.5976 10.3474 19.5835 10.3506 19.5694 10.354C19.5507 10.3585 19.5321 10.3633 19.5136 10.3684ZM13.6823 3.86239C13.6858 3.89692 13.6883 3.93175 13.6896 3.96685C13.7062 3.97025 13.7227 3.97369 13.7392 3.97718C16.8861 4.64292 19.3761 7.10626 20.0842 10.2376C20.09 10.263 20.0956 10.2884 20.1011 10.3139C20.137 10.3168 20.1725 10.3207 20.2078 10.3258C21.028 10.4433 21.6586 11.1471 21.6586 11.9997C21.6586 12.843 21.042 13.5415 20.2348 13.6706C20.1994 13.6763 20.1636 13.6809 20.1275 13.6843C20.1225 13.7093 20.1173 13.7343 20.1121 13.7592C19.4446 16.9405 16.9423 19.4548 13.7669 20.1381C13.7384 20.1442 13.7099 20.1502 13.6814 20.156C13.6774 20.1917 13.6723 20.2271 13.6661 20.2621C13.526 21.0555 12.8333 21.6584 12 21.6584C11.1617 21.6584 10.466 21.0494 10.3308 20.2495C10.3249 20.2145 10.3201 20.1791 10.3164 20.1434C10.2882 20.1375 10.2601 20.1314 10.232 20.1251C7.07867 19.4236 4.59876 16.9153 3.93893 13.7469C3.93478 13.7269 3.9307 13.707 3.92669 13.687C3.89111 13.6847 3.85582 13.6814 3.82087 13.677C2.98702 13.5719 2.34131 12.8625 2.34131 11.9997C2.34131 11.1276 3.00108 10.4118 3.84814 10.3192C3.88289 10.3154 3.91795 10.3127 3.9533 10.311C3.9576 10.2912 3.96196 10.2714 3.9664 10.2516C4.66629 7.13168 7.13475 4.67358 10.2607 3.99001C10.2771 3.98644 10.2934 3.98291 10.3098 3.97944C10.311 3.94422 10.3132 3.90928 10.3164 3.87464C10.397 3.01476 11.1189 2.34131 12.0002 2.34131C12.8765 2.34131 13.5961 3.00853 13.6823 3.86239ZM10.8897 4.15931L10.8949 3.99827C10.9141 3.40259 11.4015 2.92667 12.0002 2.92667C12.5953 2.92667 13.0814 3.39836 13.1047 3.98989L13.1111 4.15147L13.0715 4.30738C12.9495 4.78755 12.5153 5.14108 12.0002 5.14108C11.4876 5.14108 11.0554 4.7914 10.9305 4.31493L10.8897 4.15931ZM4.1271 13.1131L4.28234 13.0776C4.77564 12.9648 5.14205 12.5244 5.14205 11.9997C5.14205 11.4816 4.78431 11.0453 4.29964 10.9262L4.14453 10.888L3.98091 10.8957C3.39342 10.9235 2.92667 11.4071 2.92667 11.9997C2.92667 12.5862 3.38409 13.0661 3.96361 13.1028L4.1271 13.1131ZM10.8819 19.9233L10.8985 20.0825C10.9568 20.6391 11.428 21.073 12 21.073C12.5684 21.073 13.0378 20.6434 13.0997 20.0909L13.1178 19.929L13.0887 19.7676C12.9952 19.2497 12.5426 18.8581 12.0002 18.8581C11.4597 18.8581 11.0091 19.246 10.9127 19.7593L10.8819 19.9233ZM19.9118 13.1168L20.072 13.1016C20.6342 13.0481 21.0733 12.5748 21.0733 11.9997C21.0733 11.4192 20.6254 10.9428 20.0548 10.8975L19.8878 10.8842L19.7335 10.917C19.2331 11.0234 18.8581 11.4684 18.8581 11.9995C18.8581 12.5366 19.2418 12.9856 19.7514 13.0854L19.9118 13.1168Z" fill="white"/>
  <path fill-rule="evenodd" clip-rule="evenodd" d="M11.9998 19.9023C16.3642 19.9023 19.9023 16.3642 19.9023 11.9998C19.9023 7.63545 16.3642 4.09741 11.9998 4.09741C7.63545 4.09741 4.09741 7.63545 4.09741 11.9998C4.09741 16.3642 7.63545 19.9023 11.9998 19.9023ZM11.9998 20.7803C16.8492 20.7803 20.7803 16.8492 20.7803 11.9998C20.7803 7.15052 16.8492 3.21936 11.9998 3.21936C7.15052 3.21936 3.21936 7.15052 3.21936 11.9998C3.21936 16.8492 7.15052 20.7803 11.9998 20.7803Z" fill="white"/>
</svg>