<svg xmlns="http://www.w3.org/2000/svg" viewBox="0 0 24 25">
  <path fill-rule="evenodd" clip-rule="evenodd" d="M8.08001 14.4502C8.02754 13.804 8 13.1351 8 12.4502C8 11.7653 8.02754 11.0964 8.08001 10.4502H3.73663C3.58195 11.0916 3.5 11.7613 3.5 12.4502C3.5 13.1391 3.58195 13.8088 3.73663 14.4502L8.08001 14.4502ZM8.25184 15.9502L4.25174 15.9502C5.27749 18.2174 7.26912 19.9543 9.70176 20.6359C9.04699 19.4848 8.53657 17.8551 8.25184 15.9502ZM9.76982 15.9502H14.2302C14.0429 17.1108 13.7678 18.134 13.4357 18.9642C13.1156 19.7644 12.772 20.3113 12.4671 20.6337C12.1674 20.9506 12.0089 20.9502 11.9998 20.9502C11.9908 20.9502 11.8326 20.9506 11.5329 20.6337C11.228 20.3113 10.8844 19.7644 10.5643 18.9642C10.2322 18.134 9.9571 17.1108 9.76982 15.9502ZM14.4147 14.4502H9.58527C9.52976 13.8104 9.5 13.1413 9.5 12.4502C9.5 11.759 9.52976 11.09 9.58527 10.4502H14.4147C14.4702 11.09 14.5 11.759 14.5 12.4502C14.5 13.1413 14.4702 13.8104 14.4147 14.4502ZM15.7482 15.9502C15.4634 17.8551 14.953 19.4848 14.2982 20.6359C16.7309 19.9543 18.7225 18.2174 19.7483 15.9502L15.7482 15.9502ZM20.2634 14.4502L15.92 14.4502C15.9725 13.804 16 13.1351 16 12.4502C16 11.7653 15.9725 11.0964 15.92 10.4502H20.2634C20.4181 11.0916 20.5 11.7613 20.5 12.4502C20.5 13.1391 20.4181 13.8088 20.2634 14.4502ZM10.5643 5.93621C10.2322 6.76636 9.9571 7.7896 9.76982 8.9502H14.2302C14.0429 7.7896 13.7678 6.76636 13.4357 5.93621C13.1156 5.13598 12.772 4.58905 12.4671 4.26671C12.1674 3.9498 12.0092 3.95017 12.0002 3.9502L11.9995 3.9502C11.9852 3.95027 11.827 3.95566 11.5329 4.26671C11.228 4.58905 10.8844 5.13598 10.5643 5.93621ZM15.7482 8.9502H19.7483C18.7225 6.68297 16.7309 4.94613 14.2982 4.26454C14.953 5.41564 15.4634 7.0453 15.7482 8.9502ZM4.25174 8.9502H8.25184C8.53657 7.0453 9.04699 5.41564 9.70176 4.26454C7.26912 4.94613 5.27749 6.68297 4.25174 8.9502ZM12 2.4502C17.5228 2.4502 22 6.92735 22 12.4502C22 17.973 17.5228 22.4502 12 22.4502C6.47715 22.4502 2 17.973 2 12.4502C2 6.92735 6.47715 2.4502 12 2.4502Z" fill="white"/>
</svg>