<svg width="46" height="46" viewBox="0 0 46 46" fill="none" xmlns="http://www.w3.org/2000/svg">
<path d="M32.3139 40H31.5117V31.6008C31.5117 27.6229 28.8221 24.205 24.9693 23.2867C24.8022 23.2464 24.6785 23.1042 24.6629 22.9328C24.6462 22.7603 24.742 22.5968 24.8991 22.5263C26.5893 21.7704 27.6801 20.0838 27.6801 18.2304C27.6801 15.6367 25.581 13.5257 23.0006 13.5257C20.4201 13.5257 18.3211 15.6356 18.3211 18.2304C18.3211 20.0849 19.4129 21.7715 21.102 22.5263C21.2591 22.5968 21.3538 22.7603 21.3382 22.9328C21.3226 23.1042 21.1989 23.2475 21.0318 23.2867C17.179 24.205 14.4883 27.6229 14.4883 31.6008V40H13.685V31.6008C13.685 27.5781 16.1997 24.0773 19.9087 22.7771C18.4314 21.7614 17.5177 20.0659 17.5177 18.2304C17.5177 16.0309 18.8068 14.1282 20.6641 13.2446C20.8747 12.7037 20.9939 12.0564 20.9939 11.4427C20.9939 8.84341 18.9383 6.80632 16.3144 6.80632C13.6906 6.80632 11.6338 8.84341 11.6338 11.4427C11.6338 13.3084 12.7513 15.0622 14.4148 15.8069C14.573 15.8775 14.6677 16.041 14.651 16.2134C14.6354 16.3848 14.5117 16.5281 14.3446 16.5673C10.4918 17.4856 7.8022 20.9036 7.8022 24.8814V33.2806H7V24.8814C7 20.8565 9.5169 17.3546 13.2293 16.0555C11.7653 15.0319 10.8327 13.2838 10.8327 11.4427C10.8327 8.44137 13.2917 6 16.3144 6C19.3372 6 21.7961 8.44137 21.7961 11.4427C21.7961 11.9321 21.7337 12.4293 21.6156 12.8974C22.5003 12.6656 23.4975 12.6656 24.3832 12.8974C24.2651 12.4282 24.2016 11.9321 24.2016 11.4427C24.2016 8.44137 26.6617 6 29.6844 6C32.7072 6 35.1673 8.44137 35.1673 11.4427C35.1673 13.2838 34.2325 15.0319 32.7696 16.0555C36.482 17.3546 39 20.8565 39 24.8814V33.2806H38.1967V24.8814C38.1967 20.9036 35.5071 17.4856 31.6543 16.5673C31.4872 16.527 31.3635 16.3848 31.3479 16.2134C31.3312 16.041 31.427 15.8775 31.5841 15.8069C33.2464 15.0622 34.364 13.3084 34.364 11.4427C34.364 8.84341 32.3083 6.80632 29.6844 6.80632C27.0606 6.80632 25.0049 8.84341 25.0049 11.4427C25.0049 12.0553 25.123 12.7026 25.3347 13.2446C27.1932 14.1282 28.4823 16.0298 28.4823 18.2304C28.4823 20.067 27.5686 21.7625 26.0913 22.7783C29.8003 24.0785 32.315 27.5793 32.315 31.6019L32.3139 40Z" fill="#161616"/>
</svg>
