<svg width="46" height="46" viewBox="0 0 46 46" fill="none" xmlns="http://www.w3.org/2000/svg">
<path d="M38.3599 37.9999H37.6399C37.6399 31.5679 32.8629 25.7679 26.2809 24.2079C26.1309 24.1719 26.0199 24.0449 26.0059 23.8909C25.9909 23.7379 26.0769 23.5919 26.2179 23.5289C29.0789 22.2559 30.9279 19.4129 30.9279 16.2879C30.9279 11.9169 27.3719 8.36089 23.0009 8.36089C18.6289 8.36089 15.0729 11.9169 15.0729 16.2879C15.0729 19.4129 16.9219 22.2559 19.7839 23.5289C19.9249 23.5919 20.0099 23.7379 19.9959 23.8909C19.9819 24.0449 19.8709 24.1719 19.7209 24.2079C13.1369 25.7679 8.35989 31.5679 8.35989 37.9999H7.63989C7.63989 31.5399 12.2139 25.6879 18.6419 23.7519C16.0079 22.2129 14.3509 19.3769 14.3509 16.2869C14.3509 11.5189 18.2299 7.63989 22.9989 7.63989C27.7669 7.63989 31.6459 11.5189 31.6459 16.2869C31.6459 19.3769 29.9899 22.2129 27.3559 23.7519C33.7859 25.6879 38.3599 31.5399 38.3599 37.9999ZM22.9999 37.3599C22.9039 37.3599 22.8129 37.3219 22.7449 37.2549L18.7829 33.2899C18.2719 32.7779 17.9889 32.0989 17.9859 31.3749C17.9829 30.6439 18.2659 29.9549 18.7839 29.4369C19.2969 28.9239 19.9789 28.6409 20.7049 28.6389C20.7059 28.6389 20.7079 28.6389 20.7089 28.6389C21.4379 28.6389 22.1219 28.9219 22.6359 29.4369L22.9999 29.8029L23.3649 29.4379C24.3909 28.4109 26.1899 28.4099 27.2169 29.4389C27.7439 29.9649 28.0279 30.6669 28.0149 31.4129C28.0009 32.1239 27.7179 32.7899 27.2159 33.2909L23.2549 37.2559C23.1869 37.3219 23.0959 37.3599 22.9999 37.3599ZM20.7089 29.3599C20.7079 29.3599 20.7069 29.3599 20.7059 29.3599C20.1719 29.3609 19.6699 29.5689 19.2929 29.9469C18.9119 30.3279 18.7029 30.8339 18.7059 31.3719C18.7079 31.9039 18.9169 32.4039 19.2929 32.7799L22.9999 36.4899L26.7069 32.7799C27.0759 32.4119 27.2849 31.9219 27.2939 31.3989C27.3039 30.8499 27.0959 30.3349 26.7069 29.9469C25.9509 29.1889 24.6299 29.1899 23.8739 29.9459L23.2539 30.5659C23.1129 30.7069 22.8859 30.7069 22.7449 30.5659L22.1259 29.9469C21.7479 29.5679 21.2449 29.3599 20.7089 29.3599Z" fill="#161616"/>
</svg>
