<svg width="46" height="46" viewBox="0 0 46 46" fill="none" xmlns="http://www.w3.org/2000/svg">
<g clip-path="url(#clip0_328_245)">
<g clip-path="url(#clip1_328_245)">
<path d="M33.6609 33.186V38.9223L36.7962 37.4615" stroke="black" stroke-width="0.75" stroke-linecap="round" stroke-linejoin="round"/>
<path d="M25.1158 22.8713C23.1878 24.7993 20.062 24.7993 18.134 22.8713" stroke="black" stroke-width="0.75" stroke-linecap="round"/>
</g>
<path d="M31.2929 30.5414C29.7489 29.3072 27.9521 28.3456 25.9809 27.7521C28.6149 26.2131 30.2709 23.3771 30.2709 20.2871C30.2709 15.5191 26.3919 11.6401 21.6239 11.6401C16.8549 11.6401 12.9759 15.5191 12.9759 20.2871C12.9759 23.3771 14.6329 26.2131 17.2669 27.7521C10.8389 29.6881 6.26489 35.5401 6.26489 42.0001H6.98489C6.98489 35.5681 11.7619 29.7681 18.3459 28.2081C18.4959 28.1721 18.6069 28.0451 18.6209 27.8911C18.6349 27.7381 18.5499 27.5921 18.4089 27.5291C15.5469 26.2561 13.6979 23.4131 13.6979 20.2881C13.6979 15.9171 17.2539 12.3611 21.6259 12.3611C25.9969 12.3611 29.5529 15.9171 29.5529 20.2881C29.5529 23.4131 27.7039 26.2561 24.8429 27.5291C24.7019 27.5921 24.6159 27.7381 24.6309 27.8911C24.6449 28.0451 24.7559 28.1721 24.9059 28.2081C26.9509 28.6928 28.8218 29.5869 30.4292 30.782C30.7106 30.6868 30.9988 30.6064 31.2929 30.5414Z" fill="#161616"/>
<circle cx="33.541" cy="38.5896" r="7.09958" stroke="black" stroke-width="0.75"/>
</g>
</svg>
