<svg width="19" height="19" viewBox="0 0 19 19" fill="none" xmlns="http://www.w3.org/2000/svg">
<path d="M9.5 2C5.36426 2 2 5.36426 2 9.5C2 13.6357 5.36426 17 9.5 17C13.6357 17 17 13.6357 17 9.5C17 5.36426 13.6357 2 9.5 2ZM9.5 3.25C12.9595 3.25 15.75 6.04053 15.75 9.5C15.75 12.9595 12.9595 15.75 9.5 15.75C6.04053 15.75 3.25 12.9595 3.25 9.5C3.25 6.04053 6.04053 3.25 9.5 3.25Z" fill="black"/>
<path d="M9.5 13.1193L9.5 8.76892" stroke="black" stroke-width="1.7" stroke-linecap="round"/>
<path d="M9.50003 5.88061C9.88972 5.88061 10.2056 6.19651 10.2056 6.5862C10.2056 6.97589 9.88972 7.2918 9.50003 7.2918C9.11034 7.2918 8.79443 6.97589 8.79443 6.5862C8.79443 6.19651 9.11034 5.88061 9.50003 5.88061Z" fill="black"/>
</svg>
