<svg viewBox="0 0 100 59" fill="none" xmlns="http://www.w3.org/2000/svg">
<path fill-rule="evenodd" clip-rule="evenodd" d="M79.7135 44.9982C75.7483 44.9982 72.5388 41.7743 72.5388 37.8019C72.5388 33.8295 75.7483 30.6056 79.7135 30.6056C83.6715 30.6056 86.881 33.8295 86.881 37.8019C86.881 41.7743 83.6715 44.9982 79.7135 44.9982ZM79.7135 17.4507C68.5016 17.4507 59.4199 26.5612 59.4199 37.8019C59.4199 49.0425 68.5016 58.1603 79.7135 58.1603C90.9182 58.1603 99.9999 49.0425 99.9999 37.8019C99.9999 26.5612 90.9182 17.4507 79.7135 17.4507Z" fill="#00D2FF"/>
<path fill-rule="evenodd" clip-rule="evenodd" d="M0 17.4507V58.1603H14.4933V17.4507H0Z" fill="#00D2FF"/>
<path fill-rule="evenodd" clip-rule="evenodd" d="M7.24674 14.5365C3.24559 14.5365 0 11.2839 0 7.26835C0 3.25281 3.24559 0 7.24674 0C11.2479 0 14.4933 3.25281 14.4933 7.26835C14.4933 11.2839 11.2479 14.5365 7.24674 14.5365Z" fill="#00D2FF"/>
<path fill-rule="evenodd" clip-rule="evenodd" d="M37.6801 27.6262L27.5332 17.4507H17.3936V27.6262L27.5332 37.8019L17.3936 47.9774V58.1603H27.5332L37.6801 47.9774L47.8268 58.1603H57.9737V47.9774L47.8268 37.8019L57.9737 27.6262V17.4507H47.8268L37.6801 27.6262Z" fill="#00D2FF"/>
</svg>
