<svg width="70" height="71" viewBox="0 0 70 71" fill="none" xmlns="http://www.w3.org/2000/svg">
<g clip-path="url(#clip0_4693_741426)">
<path d="M49.1113 16.75L47.5 17.4824C42.5317 19.6736 35.354 20.4976 29.2383 22.6582C26.1804 23.7385 23.3484 25.179 21.2305 27.4922C19.1125 29.8054 17.8125 32.9915 17.8125 37.0625C17.8125 41.2739 20.2905 44.1609 22.5977 45.8027C23.5803 46.5046 24.5325 47.0112 25.332 47.3652C24.3677 49.1536 23.6536 50.7649 23.1836 52.1504C22.3291 54.6467 22.1948 56.5999 22.2559 58.0098C22.3169 59.4197 22.5 60.384 22.5 60.3535L25.625 60.6465C25.7227 59.5173 25.4297 58.9253 25.3809 57.8633C25.332 56.8013 25.4236 55.3425 26.1621 53.1758C27.6392 48.8484 31.7346 41.7256 42.373 30.3242L40.127 28.1758C33.7488 35.0117 29.6289 40.3401 26.9434 44.6309C26.2598 44.3562 25.3442 43.9351 24.4043 43.2637C22.5916 41.9758 20.9375 40.0898 20.9375 37.0625C20.9375 33.6201 21.9202 31.3496 23.5254 29.5918C25.1306 27.834 27.4683 26.5767 30.2637 25.5879C35.3235 23.7996 41.5857 22.8962 46.9629 20.9004C47.4634 22.7986 49.0625 29.2988 49.0625 39.4551C49.0625 45.2168 47.7136 48.5188 46.1328 50.3438C44.552 52.1687 42.6477 52.6875 40.957 52.6875C39.2725 52.6875 37.4536 51.8269 35.8789 50.7344C34.3042 49.6418 33.2178 48.5005 32.1191 47.8047L30.459 50.4414C30.7397 50.6184 32.2961 52.0588 34.1211 53.3223C35.946 54.5857 38.2593 55.8125 40.957 55.8125C43.3618 55.8125 46.3037 54.9641 48.5254 52.3945C50.7471 49.825 52.1875 45.699 52.1875 39.4551C52.1875 27.2358 49.5996 18.459 49.5996 18.459L49.1113 16.75Z" fill="#5FA8EB"/>
</g>
<defs>
<clipPath id="clip0_4693_741426">
<rect width="50" height="50" fill="white" transform="translate(10 10.5)"/>
</clipPath>
</defs>
</svg>
