<svg width="60" height="41" viewBox="0 0 60 41" fill="none" xmlns="http://www.w3.org/2000/svg">
<path fill-rule="evenodd" clip-rule="evenodd" d="M28.7374 25.1397V25.1231C28.7279 24.6306 28.7038 24.131 28.6629 23.6366C28.5308 22.0242 28.2289 20.4305 27.7667 18.8993C27.7536 18.8555 27.7399 18.8115 27.726 18.7677L27.687 18.6464L27.6681 18.5891C26.5685 15.1269 24.6103 11.9229 22.0053 9.32475C19.4329 6.75777 16.3981 4.88611 12.9881 3.76191C12.9518 3.74992 12.9151 3.73803 12.8783 3.72633C12.8433 3.71515 12.8081 3.70417 12.7728 3.6932L12.7497 3.68598L12.7197 3.67652L12.6516 3.65569C11.641 3.33934 10.598 3.0915 9.55184 2.91879C9.27509 2.87295 8.9973 2.83239 8.7258 2.79691C8.72056 2.79589 8.71531 2.79488 8.71112 2.79589C8.34737 2.80006 7.99515 2.87498 7.6639 3.01872C7.07267 3.27479 6.60304 3.7244 6.31896 4.28238L6.31623 4.28615C6.31519 4.28757 6.31429 4.28899 6.31372 4.29072L6.29727 4.32518C6.29246 4.33555 6.28777 4.34592 6.28332 4.35629L6.26235 4.4C5.82208 5.33481 5.625 6.0343 5.625 7.47911C5.625 9.04367 5.77176 10.6155 6.06004 12.1508L6.06947 12.2019L6.08782 12.2985C6.09921 12.3589 6.11063 12.4194 6.12293 12.4798C6.48144 14.2567 7.03493 15.993 7.76767 17.6408L7.76826 17.6415L7.76886 17.6428L7.76977 17.645L7.77243 17.6509L7.77657 17.6582C7.7798 17.6633 7.78354 17.6679 7.78759 17.672L7.79029 17.6742L7.79135 17.6751L7.79388 17.6772C7.80017 17.6835 7.80751 17.6887 7.8159 17.6939C7.81752 17.695 7.81943 17.6958 7.82132 17.6966C7.82309 17.6973 7.82486 17.698 7.82638 17.699C7.83371 17.7022 7.8421 17.7043 7.85048 17.7064C7.85258 17.7064 7.85468 17.7084 7.85782 17.7084L7.86411 17.7272C7.8689 17.7439 7.87402 17.7601 7.8791 17.7762L7.89032 17.8125L7.89383 17.8237C7.89898 17.84 7.90426 17.8568 7.91024 17.8729C7.92072 17.902 7.93225 17.9312 7.94273 17.9604L7.94992 17.9793C7.95456 17.9917 7.95919 18.0041 7.96475 18.0166C7.97838 18.0488 7.99305 18.08 8.00773 18.1124L8.0131 18.1235L8.01821 18.1347C8.02162 18.1423 8.02503 18.1498 8.02869 18.1571C8.05071 18.204 8.07482 18.2497 8.09997 18.2945C8.15868 18.3996 8.22472 18.5016 8.296 18.5985C8.47002 18.8316 8.67862 19.0346 8.91763 19.2032C8.93335 19.2189 8.95641 19.2344 8.9973 19.2574C9.00906 19.2654 9.02134 19.2724 9.03377 19.2795L9.04971 19.2886C9.08011 19.3073 9.11051 19.326 9.14196 19.3438L9.1505 19.3484C9.17806 19.3634 9.20561 19.3785 9.23316 19.3927C9.24782 19.4004 9.26248 19.4079 9.27713 19.4153C9.29392 19.4236 9.31072 19.4317 9.32751 19.4396C9.33432 19.4426 9.34087 19.4461 9.34742 19.4494C9.35398 19.4528 9.36053 19.4562 9.36734 19.4593C11.336 20.3983 13.1652 20.9291 15.3918 21.2008C14.0762 21.6557 12.9262 22.5197 12.118 23.6731C12.0499 23.7709 11.9849 23.8677 11.9262 23.9624C11.27 25.0106 10.924 26.2192 10.924 27.4548C10.924 27.9513 10.9817 28.4509 11.0949 28.9423C11.2186 29.4773 11.4094 29.9946 11.662 30.4829C11.9943 31.123 12.4262 31.7028 12.9472 32.2056C13.4336 32.7969 13.9546 33.3715 14.4976 33.9128C16.0082 35.42 17.7588 36.7234 19.7002 37.7913C20.1247 38.0568 20.6206 38.2035 21.1437 38.2035C21.1636 38.2035 21.1835 38.2025 21.2024 38.2025L21.2244 38.2014C21.2515 38.2007 21.2788 38.1996 21.3061 38.198C21.3613 38.1947 21.4167 38.1896 21.4707 38.1827C21.9969 38.1192 22.4802 37.9058 22.8744 37.5821C24.7508 36.1727 26.0905 34.5165 27.2069 32.2255L27.2558 32.1233C27.2882 32.0553 27.3201 31.9873 27.3515 31.9194V31.9184C27.5098 31.5737 27.6576 31.2199 27.7887 30.8659V30.8649C28.4218 29.1619 28.7436 27.3726 28.7436 25.5446C28.7436 25.4717 28.7426 25.399 28.7415 25.3261C28.7395 25.2647 28.7384 25.2021 28.7374 25.1397ZM12.7826 4.26571C19.5943 6.51309 24.952 11.9063 27.1419 18.7181C27.1387 18.7203 27.1356 18.7213 27.1314 18.7233C25.8819 16.2262 23.975 14.1131 21.6101 12.6089C19.1488 11.0433 16.3006 10.2157 13.3738 10.2157C12.0268 10.2157 10.6913 10.3927 9.39984 10.7383C9.81915 9.46107 10.3538 8.21814 10.9953 7.03986C11.0855 6.90761 11.1651 6.76611 11.2312 6.6183C11.6956 5.8074 12.2176 5.01623 12.7826 4.26571ZM12.2333 4.09087C11.9608 4.45835 11.6998 4.83406 11.4513 5.21303C11.3895 4.6519 11.1525 4.12624 10.7752 3.70468C11.2689 3.81813 11.7574 3.94723 12.2333 4.09087ZM8.68072 3.32785C8.92287 3.36007 9.1755 3.39758 9.4512 3.44343C10.3401 3.74626 10.9366 4.57596 10.9366 5.51281C10.9366 5.77721 10.8894 6.03531 10.7951 6.28304C10.6787 6.48503 10.5749 6.66923 10.4806 6.84519C10.0613 7.38854 9.42919 7.6998 8.74467 7.6998C7.536 7.6998 6.55272 6.71924 6.55272 5.51383C6.55272 4.34063 7.50665 3.36221 8.68072 3.32785ZM6.15648 7.47911C6.15648 7.13044 6.16486 6.77749 6.18058 6.42363C6.55797 7.47393 7.56641 8.22962 8.74467 8.22962C9.15349 8.22962 9.55393 8.13702 9.91978 7.96105C9.46902 8.92077 9.08326 9.91383 8.77401 10.9184C8.01192 11.1578 7.2624 11.4597 6.54434 11.8167C6.28751 10.3886 6.15648 8.93023 6.15648 7.47911ZM7.80332 16.3011C7.30853 15.0228 6.91962 13.6997 6.64707 12.359C7.27288 12.0394 7.92701 11.7657 8.59476 11.5378C8.16497 13.0877 7.89976 14.6866 7.80332 16.3011ZM8.2981 17.1474C8.30229 16.9829 8.30858 16.8184 8.31592 16.6539C8.47631 15.5943 9.40718 14.7949 10.4827 14.7949C11.6914 14.7949 12.6746 15.7754 12.6746 16.9808C12.6746 18.1863 11.6914 19.1668 10.4827 19.1668C9.34218 19.1689 8.38301 18.2809 8.2981 17.1474ZM11.1033 19.6259C12.3098 19.3427 13.2061 18.2518 13.2061 16.9819C13.2061 15.484 11.9838 14.265 10.4827 14.265C9.68811 14.265 8.94698 14.6085 8.43228 15.1977C8.57799 13.8924 8.83901 12.5974 9.21219 11.341C10.5613 10.9464 11.9618 10.7456 13.3749 10.7456C19.0398 10.7456 24.1166 13.8871 26.6523 18.9503C23.9457 20.2015 21.0546 20.8365 18.0565 20.8365C15.6696 20.8375 13.333 20.4295 11.1033 19.6259ZM13.4063 31.9132C12.9357 31.3427 12.4849 30.7368 12.0666 30.1134C11.6589 29.2795 11.4524 28.3854 11.4524 27.4548C11.4524 26.3493 11.7543 25.2657 12.3256 24.3205C12.3843 24.2237 12.4451 24.128 12.508 24.0374C13.6495 22.3656 15.5354 21.3673 17.5544 21.3673C20.9193 21.3673 23.6564 24.0978 23.6564 27.4548C23.6564 28.6237 23.3199 29.7614 22.6846 30.7452C22.6228 30.8409 22.5599 30.9336 22.4949 31.021C21.9037 31.834 21.1143 32.495 20.2149 32.9322C20.0933 32.976 19.9748 33.029 19.8627 33.0883C19.1278 33.3892 18.3511 33.5412 17.5554 33.5412C16.0134 33.5422 14.5395 32.9635 13.4063 31.9132ZM18.633 36.5474C17.265 35.6688 15.9924 34.6456 14.8425 33.4933C15.6926 33.8743 16.6183 34.0741 17.5544 34.0741C18.0114 34.0741 18.4653 34.0263 18.9098 33.9347C18.5901 34.3896 18.416 34.9308 18.416 35.4888C18.416 35.8531 18.4915 36.2133 18.633 36.5474ZM21.1405 37.6737C19.9318 37.6737 18.9486 36.6932 18.9486 35.4877C18.9486 34.6904 19.3847 33.9565 20.087 33.5714C20.2117 33.5193 20.3218 33.4714 20.4224 33.4225C20.6541 33.3423 20.8952 33.3018 21.1405 33.3018C22.3492 33.3018 23.3324 34.2823 23.3324 35.4877C23.3314 36.6932 22.3481 37.6737 21.1405 37.6737ZM28.2059 25.9278C28.1535 27.968 27.6901 29.9374 26.8274 31.7819C26.8038 31.8326 26.7798 31.8827 26.7557 31.9326C26.7316 31.9823 26.7073 32.0319 26.6827 32.0817C25.9489 33.564 24.9793 34.9017 23.7989 36.0654C23.8409 35.876 23.8639 35.6834 23.8639 35.4877C23.8639 34.1074 22.8167 32.9572 21.4728 32.7917C22.0567 32.3649 22.5641 31.8475 22.9834 31.2531C23.0515 31.1564 23.1165 31.0596 23.1763 30.9638C23.8388 29.9114 24.1889 28.6987 24.1889 27.4558C24.1889 24.7275 22.4666 22.2605 19.9423 21.2831C22.3544 21.0686 24.6858 20.4461 26.8819 19.4301C27.709 21.2404 28.1545 23.1693 28.2059 25.1647C28.209 25.2917 28.2111 25.4187 28.2111 25.5468L28.2097 25.6992C28.2092 25.7447 28.2086 25.7901 28.2078 25.8357L28.2059 25.9278Z" fill="white"/>
<path d="M39.7191 34.0907C39.5933 34.0398 39.4759 33.9898 39.369 33.9387C39.1404 33.8618 38.893 33.8201 38.6435 33.8201C37.4087 33.8201 36.4044 34.8038 36.4044 36.0123C36.4044 37.2209 37.4087 38.2046 38.6435 38.2046C39.8784 38.2046 40.8827 37.2209 40.8827 36.0123C40.8827 35.2139 40.4361 34.478 39.7191 34.0907Z" fill="white"/>
<path d="M36.6403 31.6706C37.0533 32.2452 37.5471 32.7521 38.111 33.1779C36.7231 33.4267 35.6968 34.6165 35.6989 36.0144C35.6989 36.1405 35.7084 36.2695 35.7272 36.4006C34.5616 35.24 33.5992 33.9138 32.8634 32.4575L32.8623 32.4565C32.8109 32.3546 32.7606 32.2515 32.7114 32.1484C31.8057 30.2487 31.3182 28.2199 31.2637 26.1172C31.2605 25.986 31.2585 25.8549 31.2585 25.7237C31.2585 25.6363 31.2594 25.5489 31.2609 25.4615L31.2637 25.3302C31.3161 23.3004 31.7732 21.3351 32.6233 19.4874C34.8383 20.4847 37.1864 21.1113 39.608 21.3538C37.0523 22.4479 35.3551 24.9617 35.3551 27.6994C35.3551 28.9985 35.7283 30.2674 36.4338 31.3677C36.4569 31.4038 36.4804 31.4397 36.5042 31.4753L36.5416 31.5306L36.5677 31.5686C36.5916 31.603 36.6158 31.6371 36.6403 31.6706Z" fill="white"/>
<path d="M49.9481 6.32472C50.3769 6.86593 51.0216 7.1772 51.7187 7.1772C52.9535 7.1772 53.9578 6.19349 53.9578 4.98502C53.9578 3.81396 52.986 2.83228 51.79 2.79589C51.5394 2.82812 51.2773 2.86664 50.9912 2.91351C50.0865 3.21847 49.4796 4.05021 49.4796 4.98604C49.4796 5.2483 49.5278 5.50651 49.6211 5.75221C49.7416 5.95724 49.8496 6.14561 49.9481 6.32472Z" fill="white"/>
<path d="M47.6828 24.1935L47.6922 24.2071C47.7562 24.2998 47.8191 24.3955 47.8778 24.4923C48.4743 25.4593 48.7887 26.568 48.7887 27.6994C48.7887 28.6509 48.5739 29.5669 48.1535 30.4111C47.7143 31.0554 47.2404 31.68 46.7519 32.2618C45.5695 33.3371 44.0338 33.9295 42.4257 33.9295C41.5955 33.9295 40.7862 33.7733 40.0262 33.4683C39.9046 33.4048 39.7767 33.3486 39.652 33.3049C38.7127 32.8573 37.8898 32.1807 37.2735 31.349C37.2127 31.2679 37.1528 31.1818 37.0938 31.0936L37.0753 31.0659C36.4118 30.0592 36.0616 28.8944 36.0616 27.6984C36.0616 24.2633 38.9171 21.4694 42.4257 21.4694C44.5275 21.4694 46.492 22.4875 47.6828 24.1935Z" fill="white"/>
<path d="M49.3821 3.23311C48.9701 3.32988 48.5592 3.43713 48.1587 3.55373C48.3862 3.85767 48.6074 4.16792 48.8191 4.4802C48.9009 4.0253 49.0928 3.60059 49.3821 3.23311Z" fill="white"/>
<path d="M46.8348 9.7827C43.734 9.7827 40.716 10.6426 38.1079 12.2706C35.8394 13.6852 33.9661 15.6235 32.6485 17.9073C35.093 11.264 40.5629 6.01864 47.4312 3.77859C48.0183 4.54679 48.556 5.34935 49.0288 6.15923C49.1001 6.31537 49.185 6.46521 49.2793 6.59949C49.9293 7.77269 50.4796 9.01348 50.9146 10.2918C49.5823 9.9545 48.2101 9.7827 46.8348 9.7827Z" fill="white"/>
<path d="M41.151 34.5061C41.4382 34.961 41.5892 35.4783 41.5892 36.0123C41.5892 36.3257 41.5378 36.6338 41.4351 36.9294C42.7004 36.1154 43.887 35.1837 44.9678 34.1542C44.1596 34.4592 43.2874 34.6195 42.4247 34.6195C42.0001 34.6195 41.5724 34.5821 41.151 34.5061Z" fill="white"/>
<path d="M51.7176 7.86946C52.8466 7.86946 53.8718 7.22924 54.3624 6.24869C54.3708 6.51411 54.375 6.77332 54.375 7.02319C54.375 8.48356 54.2429 9.95755 53.984 11.4055C53.2607 11.0579 52.508 10.7622 51.7449 10.5249C51.4388 9.55571 51.0625 8.59395 50.6253 7.66229C50.9744 7.79973 51.3402 7.86946 51.7176 7.86946Z" fill="white"/>
<path d="M52.7617 15.8202C53.2198 14.6127 53.5846 13.3667 53.8477 12.1113C53.2513 11.8157 52.6254 11.5544 51.9828 11.3337C52.3864 12.7942 52.6474 14.3004 52.7617 15.8202Z" fill="white"/>
<path d="M49.8852 13.9746C48.2615 13.9746 46.9396 15.2675 46.9396 16.8579C46.9396 18.104 47.7887 19.2241 48.989 19.6051C46.71 20.3847 44.3252 20.7793 41.8963 20.7793C38.7725 20.7793 35.7556 20.1349 32.9284 18.8639C35.6004 13.6884 40.9225 10.476 46.8348 10.476C48.3034 10.476 49.7605 10.678 51.1673 11.0777C51.531 12.2893 51.7942 13.5416 51.9503 14.8052C51.401 14.2754 50.661 13.9746 49.8852 13.9746Z" fill="white"/>
<path d="M49.8852 14.6658C48.6504 14.6658 47.6461 15.6495 47.6461 16.8579C47.6461 18.0665 48.6504 19.0502 49.8852 19.0502C51.0499 19.0502 52.03 18.1602 52.117 17.0246C52.1128 16.8611 52.1065 16.6914 52.0981 16.5228C51.9346 15.4673 50.9828 14.6658 49.8852 14.6658Z" fill="white"/>
<path d="M31.7612 16.0172C31.919 16.9824 31.2589 17.892 30.2868 18.0486C29.3147 18.2053 28.3988 17.5497 28.241 16.5845C28.0833 15.6192 28.7434 14.7097 29.7155 14.553C30.6876 14.3964 31.6035 15.0519 31.7612 16.0172Z" fill="white"/>
</svg>
