<svg width="140" height="71" viewBox="0 0 140 71" fill="none" xmlns="http://www.w3.org/2000/svg">
<path d="M69.9947 11.6882C70.174 11.6882 70.3427 11.6989 70.5219 11.6989V0H69.4675V11.6989C69.6467 11.6989 69.826 11.6882 69.9947 11.6882Z" fill="black"/>
<path d="M99.6776 19.7777L105.445 9.71366L104.528 9.18286L98.7497 19.2469C99.0766 19.4167 99.3718 19.5972 99.6776 19.7777Z" fill="black"/>
<path d="M55.3905 13.5354L52.3853 2.2612L51.3625 2.53722L54.3677 13.8114C54.7157 13.7159 55.0425 13.6204 55.3905 13.5354Z" fill="black"/>
<path d="M126.914 55.6705L137.743 52.7511L137.469 51.7213L126.619 54.6513C126.724 54.991 126.819 55.3308 126.914 55.6705Z" fill="black"/>
<path d="M121.051 41.4131L130.879 35.7017L130.352 34.7781L120.524 40.4895C120.703 40.7974 120.872 41.1053 121.051 41.4131Z" fill="black"/>
<path d="M111.762 29.1728L119.86 21.0197L119.111 20.266L110.992 28.4403C111.256 28.6845 111.519 28.9287 111.762 29.1728Z" fill="black"/>
<path d="M85.6218 13.8114L88.627 2.53722L87.6042 2.2612L84.6095 13.5248C84.9469 13.6204 85.2843 13.7159 85.6218 13.8114Z" fill="black"/>
<path d="M0 69.9384V71H11.0823C11.0823 70.6391 11.1034 70.2887 11.114 69.9384H0Z" fill="black"/>
<path d="M128.886 69.9384C128.897 70.2887 128.918 70.6391 128.918 71H140V69.9384H128.886Z" fill="black"/>
<path d="M41.2292 19.2469L35.4508 9.18286L34.5334 9.71366L40.3013 19.7777C40.6176 19.5972 40.9234 19.4167 41.2292 19.2469Z" fill="black"/>
<path d="M13.3705 54.6513L2.52016 51.7213L2.246 52.7511L13.0753 55.6705C13.1702 55.3308 13.2756 54.991 13.3705 54.6513Z" fill="black"/>
<path d="M28.987 28.4403L20.8677 20.266L20.119 21.0197L28.2172 29.1835C28.4808 28.9287 28.7339 28.6845 28.987 28.4403Z" fill="black"/>
<path d="M19.4758 40.4895L9.64826 34.7781L9.12103 35.7017L18.9591 41.4131C19.1278 41.1053 19.2965 40.7974 19.4758 40.4895Z" fill="black"/>
</svg>
