<svg width="24" height="25" viewBox="0 0 24 25" xmlns="http://www.w3.org/2000/svg">
    <path d="M17.2266 3.45035C17.1123 3.45328 16.9922 3.46793 16.875 3.49722L4.6875 6.70816C3.70312 6.96597 3 7.86832 3 8.88785V19.2003C3 20.4337 4.0166 21.4503 5.25 21.4503H18.75C19.9834 21.4503 21 20.4337 21 19.2003V9.45035C21 8.21695 19.9834 7.20035 18.75 7.20035H8.71875L17.25 4.95035V6.45035H18.75V4.95035C18.75 4.1066 18.0322 3.43863 17.2266 3.45035ZM5.25 8.70035H18.75C19.1748 8.70035 19.5 9.02554 19.5 9.45035V19.2003C19.5 19.6252 19.1748 19.9503 18.75 19.9503H5.25C4.8252 19.9503 4.5 19.6252 4.5 19.2003V9.45035C4.5 9.02554 4.8252 8.70035 5.25 8.70035ZM16.875 13.2003C16.2539 13.2003 15.75 13.7043 15.75 14.3253C15.75 14.9464 16.2539 15.4503 16.875 15.4503C17.4961 15.4503 18 14.9464 18 14.3253C18 13.7043 17.4961 13.2003 16.875 13.2003Z"/>
</svg>
