<svg width="46" height="47" viewBox="0 0 46 47" fill="none" xmlns="http://www.w3.org/2000/svg">
<path d="M11.5715 24.5714H34.4287V40.8571C34.4287 41.9617 33.5332 42.8571 32.4287 42.8571H13.5715C12.467 42.8571 11.5715 41.9617 11.5715 40.8571V24.5714Z" stroke="black" stroke-width="0.75"/>
<path d="M34.4285 24.5714L11.5713 24.5714V24.5714C11.5713 22.0467 13.618 20 16.1428 20L29.857 20C32.3818 20 34.4285 22.0467 34.4285 24.5714V24.5714Z" stroke="black" stroke-width="0.75"/>
<path d="M34.4285 24.5714H36.9999C38.1045 24.5714 38.9999 25.4668 38.9999 26.5714V29.4286C38.9999 30.5331 38.1045 31.4286 36.9999 31.4286H34.4285V24.5714Z" stroke="black" stroke-width="0.75"/>
<path d="M11.5715 31.4286L9.00011 31.4286C7.89554 31.4286 7.0001 30.5332 7.0001 29.4286L7.0001 26.5714C7.0001 25.4669 7.89553 24.5714 9.0001 24.5714L11.5715 24.5714L11.5715 31.4286Z" stroke="black" stroke-width="0.75"/>
<path d="M19.5715 20L19.5715 19.7143C19.5715 18.6097 20.467 17.7143 21.5715 17.7143L24.4287 17.7143C25.5332 17.7143 26.4287 18.6097 26.4287 19.7143L26.4287 20L19.5715 20Z" stroke="black" stroke-width="0.75"/>
<path d="M28.7144 15.4286C28.7144 13.2245 29.8572 12.8572 29.8572 10.2857C29.8572 7.71431 28.7144 7.34696 28.7144 5.14288" stroke="black" stroke-width="0.75"/>
<path d="M23 14.2857C23 12.0816 24.1429 11.7143 24.1429 9.14286C24.1429 6.57143 23 6.20408 23 4" stroke="black" stroke-width="0.75"/>
<path d="M17.2856 15.4286C17.2856 13.2245 18.4285 12.8572 18.4285 10.2857C18.4285 7.71431 17.2856 7.34696 17.2856 5.14288" stroke="black" stroke-width="0.75"/>
<line x1="7" y1="45.9107" x2="39" y2="45.9107" stroke="black" stroke-width="0.75"/>
</svg>
