<svg width="82" height="81" viewBox="0 0 82 81" fill="transparent" xmlns="http://www.w3.org/2000/svg">
<path d="M60.4088 74.1961L59.5 72.6191C70.9464 66.0126 78.0566 53.7031 78.0566 40.5026C78.0566 20.0679 61.4339 3.44515 40.9991 3.44515C20.5644 3.44262 3.94164 20.0653 3.94164 40.5001C3.94164 53.7031 11.0545 66.01 22.5008 72.6166L21.5895 74.1936C9.57873 67.263 2.11914 54.3536 2.11914 40.5001C2.11914 19.0604 19.5595 1.62012 40.9991 1.62012C62.4388 1.62012 79.8791 19.0604 79.8791 40.5001C79.8791 54.3536 72.4195 67.263 60.4088 74.1961ZM41.8977 60.7375H40.0752C40.0752 51.0073 44.6897 47.5724 49.1498 44.2464C53.1972 41.2342 57.0169 38.3865 57.0169 30.5523C57.0169 22.1789 50.2914 16.1014 41.0219 16.1014C32.2005 16.1014 25.0244 23.3129 25.0244 32.1748H23.2045C23.2045 22.308 31.1981 14.2789 41.0245 14.2789C51.3494 14.2789 58.8445 21.1234 58.8445 30.5523C58.8445 39.3003 54.4679 42.558 50.2433 45.7069C45.9503 48.9039 41.8977 51.9236 41.8977 60.7375ZM40.9991 72.1407C39.6019 72.1407 38.4679 73.2747 38.4679 74.672C38.4679 76.0692 39.6019 77.2032 40.9991 77.2032C42.3964 77.2032 43.5304 76.0692 43.5304 74.672C43.5304 73.2747 42.3964 72.1407 40.9991 72.1407Z" fill="#161616"/>
</svg>
