<svg width="24" height="25" viewBox="0 0 24 25" fill="none" xmlns="http://www.w3.org/2000/svg">
<path d="M14.25 2.7002C10.1162 2.7002 6.75 6.06641 6.75 10.2002C6.75 11.9961 7.37988 13.6426 8.4375 14.9346L2.46094 20.9111L3.53906 21.9893L9.51562 16.0127C10.8076 17.0703 12.4541 17.7002 14.25 17.7002C18.3838 17.7002 21.75 14.334 21.75 10.2002C21.75 6.06641 18.3838 2.7002 14.25 2.7002ZM14.25 4.2002C17.5723 4.2002 20.25 6.87793 20.25 10.2002C20.25 13.5225 17.5723 16.2002 14.25 16.2002C10.9277 16.2002 8.25 13.5225 8.25 10.2002C8.25 6.87793 10.9277 4.2002 14.25 4.2002Z" />
</svg>
