<svg width="46" height="46" viewBox="0 0 46 46" fill="none" xmlns="http://www.w3.org/2000/svg">
<path d="M35.0826 42.4187C34.9838 42.1737 32.5488 36.45 23 36.45C13.4525 36.45 11.0163 42.1737 10.9175 42.4175L10.0825 42.0812C10.1875 41.8187 12.7363 35.7337 22.5513 35.5525V26.45H19.25C14.0913 26.45 10.05 22.4087 10.05 17.25V13.5C10.05 13.2512 10.2513 13.05 10.5 13.05H14.25C17.9563 13.05 21.085 15.135 22.5538 18.2225C22.695 13.1962 26.6838 9.29999 31.75 9.29999H35.5C35.7488 9.29999 35.9501 9.50124 35.9501 9.74999V13.5C35.9501 18.6587 31.9088 22.7 26.75 22.7H23.4501V35.555C33.2651 35.7362 35.8125 41.8212 35.9175 42.0837L35.0826 42.4187ZM10.95 13.95V17.25C10.95 21.9037 14.5963 25.55 19.25 25.55H21.9138L15.1825 18.8175L15.8188 18.1812L22.5513 24.9125V22.25C22.5513 17.5962 18.905 13.95 14.2513 13.95H10.95ZM24.0863 21.8H26.75C31.4051 21.8 35.05 18.1537 35.05 13.5V10.2H31.75C27.095 10.2 23.4501 13.8462 23.4501 18.5V21.1637L30.1813 14.4325L30.8188 15.0687L24.0863 21.8Z" fill="#161616"/>
</svg>
