<svg width="32" height="32" viewBox="0 0 32 32" fill="none" xmlns="http://www.w3.org/2000/svg">
<path d="M15.6877 18.7809V16.1044H13.3912C9.80252 16.1044 6.99121 13.293 6.99121 9.70435V7.09566C6.99121 6.92262 7.13121 6.78261 7.30425 6.78261H9.91295C12.4912 6.78261 14.6677 8.23305 15.6895 10.3809C15.7877 6.88435 18.5625 4.17392 22.0869 4.17392H24.6956C24.8686 4.17392 25.0086 4.31392 25.0086 4.48696V7.09566C25.0086 10.6844 22.1973 13.4957 18.6086 13.4957H16.313V18.7826L15.6877 18.7809ZM7.6173 7.4087V9.70435C7.6173 12.9417 10.1538 15.4783 13.3912 15.4783H15.2443L10.5616 10.7948L11.0043 10.3522L15.6877 15.0348V13.1826C15.6877 9.94522 13.1512 7.4087 9.91382 7.4087H7.6173ZM16.7556 12.8696H18.6086C21.8469 12.8696 24.3825 10.333 24.3825 7.09566V4.80001H22.0869C18.8486 4.80001 16.313 7.33653 16.313 10.5739V12.427L20.9956 7.74435L21.439 8.18696L16.7556 12.8696Z" fill="#161616"/>
<path fill-rule="evenodd" clip-rule="evenodd" d="M20.8698 18.7826H9.73934C7.81835 18.7826 6.26108 20.3399 6.26108 22.2609C6.26108 24.1819 7.81835 25.7391 9.73934 25.7391H20.8698C22.7908 25.7391 24.348 24.1819 24.348 22.2609C24.348 20.3399 22.7908 18.7826 20.8698 18.7826ZM9.73934 18.087C7.43415 18.087 5.56543 19.9557 5.56543 22.2609C5.56543 24.5661 7.43415 26.4348 9.73934 26.4348H20.8698C23.175 26.4348 25.0437 24.5661 25.0437 22.2609C25.0437 19.9557 23.175 18.087 20.8698 18.087H9.73934Z" fill="black"/>
</svg>
