<svg width="70" height="71" viewBox="0 0 70 71" fill="none" xmlns="http://www.w3.org/2000/svg">
<rect y="0.5" width="70" height="70" rx="35" fill="white" fill-opacity="0.3"/>
<path d="M58.4475 13.5869H32.8107C31.5611 13.5884 30.363 14.0853 29.4792 14.9686C28.5953 15.852 28.0977 17.0497 28.0955 18.2993V23.1797H17.3603C16.3397 23.1834 15.3424 23.4857 14.4916 24.0494C13.6407 24.6132 12.9736 25.4137 12.5723 26.3521L8.7335 35.3961C7.47965 38.3858 6.8352 41.5957 6.8379 44.8377V48.3797C6.8416 49.7578 7.39107 51.0783 8.36607 52.0523C9.34107 53.0262 10.6622 53.5743 12.0403 53.5765H15.9771C16.2785 54.6777 16.9334 55.6492 17.841 56.3418C18.7486 57.0343 19.8586 57.4095 21.0003 57.4095C22.142 57.4095 23.252 57.0343 24.1596 56.3418C25.0672 55.6492 25.7221 54.6777 26.0235 53.5765H47.1719C47.4733 54.6777 48.1282 55.6492 49.0358 56.3418C49.9434 57.0343 51.0535 57.4095 52.1951 57.4095C53.3368 57.4095 54.4468 57.0343 55.3544 56.3418C56.262 55.6492 56.9169 54.6777 57.2183 53.5765H58.4475C59.6979 53.5743 60.8963 53.0764 61.7802 52.192C62.6641 51.3076 63.1612 50.1089 63.1627 48.8585V18.2993C63.1605 17.0497 62.6629 15.852 61.779 14.9686C60.8952 14.0853 59.6971 13.5884 58.4475 13.5869ZM9.6379 48.3797V48.1501H11.8107C12.182 48.1501 12.5381 48.0026 12.8006 47.7401C13.0632 47.4775 13.2107 47.1214 13.2107 46.7501C13.2107 46.3788 13.0632 46.0227 12.8006 45.7602C12.5381 45.4976 12.182 45.3501 11.8107 45.3501H9.6379V44.8433C9.63585 41.9751 10.207 39.1353 11.3179 36.4909L15.1539 27.4441C15.3392 27.0118 15.6467 26.6429 16.0386 26.3828C16.4306 26.1226 16.8899 25.9826 17.3603 25.9797H28.0899V50.7905H26.0179C25.7183 49.6877 25.0642 48.7141 24.1564 48.0199C23.2485 47.3258 22.1375 46.9497 20.9947 46.9497C19.8519 46.9497 18.7409 47.3258 17.833 48.0199C16.9252 48.7141 16.2711 49.6877 15.9715 50.7905H12.0403C11.4021 50.789 10.7907 50.5343 10.3402 50.0823C9.88976 49.6302 9.63716 49.0179 9.6379 48.3797ZM21.0003 54.6125C20.3612 54.6118 19.7481 54.3598 19.2933 53.9108C18.8386 53.4618 18.5787 52.8519 18.5699 52.2129V52.1793V52.1429C18.5699 51.4983 18.826 50.8801 19.2817 50.4244C19.7375 49.9686 20.3557 49.7125 21.0003 49.7125C21.6449 49.7125 22.2631 49.9686 22.7189 50.4244C23.1746 50.8801 23.4307 51.4983 23.4307 52.1429V52.1877V52.2297C23.4175 52.8658 23.1557 53.4714 22.7015 53.9168C22.2472 54.3622 21.6365 54.6119 21.0003 54.6125ZM52.1951 54.6125C51.7132 54.6131 51.242 54.4708 50.8409 54.2038C50.4398 53.9368 50.1267 53.5569 49.9413 53.1121C49.7559 52.6674 49.7064 52.1777 49.7991 51.7048C49.8917 51.2319 50.1224 50.7971 50.4619 50.4552C50.8015 50.1133 51.2347 49.8796 51.707 49.7837C52.1792 49.6878 52.6692 49.7339 53.1153 49.9163C53.5613 50.0987 53.9433 50.4091 54.2131 50.8083C54.4829 51.2076 54.6283 51.6779 54.6311 52.1597V52.1793C54.6296 52.8244 54.3723 53.4426 53.9156 53.8982C53.459 54.3538 52.8402 54.6097 52.1951 54.6097V54.6125ZM60.3627 48.8613C60.3627 49.3695 60.161 49.8569 59.8019 50.2166C59.4428 50.5762 58.9557 50.7786 58.4475 50.7793H57.2211C56.9215 49.6758 56.267 48.7016 55.3586 48.007C54.4503 47.3124 53.3386 46.9361 52.1951 46.9361C51.0516 46.9361 49.9399 47.3124 49.0316 48.007C48.1232 48.7016 47.4688 49.6758 47.1691 50.7793H30.8955V18.2993C30.8962 17.7919 31.0984 17.3054 31.4574 16.9469C31.8165 16.5883 32.3032 16.3869 32.8107 16.3869H58.4475C58.955 16.3869 59.4417 16.5883 59.8008 16.9469C60.1599 17.3054 60.362 17.7919 60.3627 18.2993V48.8613Z" fill="#5FA8EB"/>
<path d="M45.5 24.6504L42 33.7504H47.6L45.5 42.1504" stroke="#5FA8EB" stroke-width="3" stroke-linecap="round" stroke-linejoin="round"/>
</svg>
