<svg width="18" height="18" viewBox="0 0 18 18" fill="none" xmlns="http://www.w3.org/2000/svg">
<path d="M9 0.875C4.50049 0.875 0.875 4.50049 0.875 9C0.875 13.4995 4.50049 17.125 9 17.125C13.4995 17.125 17.125 13.4995 17.125 9C17.125 8.12598 17.0078 7.25439 16.6953 6.44141L15.6797 7.4375C15.8042 7.93799 15.875 8.43848 15.875 9C15.875 12.8135 12.8135 15.875 9 15.875C5.18652 15.875 2.125 12.8135 2.125 9C2.125 5.18652 5.18652 2.125 9 2.125C10.875 2.125 12.5596 2.87207 13.7461 4.05859L14.625 3.17969C13.187 1.7417 11.1875 0.875 9 0.875ZM16.0508 3.55078L9 10.6016L6.32422 7.92578L5.42578 8.82422L8.55078 11.9492L9 12.3789L9.44922 11.9492L16.9492 4.44922L16.0508 3.55078Z"/>
</svg>
