    <svg
      xmlns="http://www.w3.org/2000/svg"
      width="24"
      height="24"
      viewBox="0 0 24 24"
    >
      <path
        d="M12.0002 3.75C9.10864 3.75 6.75024 6.1084 6.75024 9C6.75024 10.8076 7.6731 12.4131 9.07056 13.3594C6.39575 14.5078 4.50024 17.1621 4.50024 20.25H6.00024C6.00024 16.9277 8.67798 14.25 12.0002 14.25C15.3225 14.25 18.0002 16.9277 18.0002 20.25H19.5002C19.5002 17.1621 17.6047 14.5078 14.9299 13.3594C16.3274 12.4131 17.2502 10.8076 17.2502 9C17.2502 6.1084 14.8918 3.75 12.0002 3.75ZM12.0002 5.25C14.0803 5.25 15.7502 6.91992 15.7502 9C15.7502 11.0801 14.0803 12.75 12.0002 12.75C9.92017 12.75 8.25024 11.0801 8.25024 9C8.25024 6.91992 9.92017 5.25 12.0002 5.25Z"
      />
    </svg>