<svg width="46" height="46" viewBox="0 0 46 46" fill="none" xmlns="http://www.w3.org/2000/svg">
<rect width="36" height="36" transform="translate(5 5)" fill="white" style="mix-blend-mode:multiply"/>
<path d="M27.1591 39.47C27.6215 38.9919 27.9072 38.3416 27.9072 37.625V37.6239V21.1539H30.7434C30.767 21.1539 30.7884 21.1527 30.8097 21.1482C31.8009 21.0526 32.5074 19.6869 32.5074 18.7554C32.5074 18.2907 32.3308 17.8486 32.0225 17.5246C32.0101 17.51 30.7423 16.0542 29.543 14.8089C28.4956 13.6929 27.0466 12.8435 25.466 12.4025C26.312 11.6949 26.8239 10.6374 26.8239 9.50225C26.8239 7.41762 25.1094 5.72112 23.0011 5.72112C20.894 5.72112 19.1806 7.41762 19.1806 9.50225C19.1806 10.6374 19.6914 11.6949 20.5374 12.4025C18.977 12.8379 17.5572 13.6704 16.4637 14.8044C15.2589 16.0542 13.9921 17.51 13.991 17.5122C13.6715 17.8497 13.496 18.2907 13.496 18.7554C13.496 19.6869 14.2014 21.0526 15.1925 21.1482C15.2139 21.1516 15.2364 21.1539 15.2589 21.1539H18.0972V22.8234L14.1283 26.5572C13.3318 27.4876 13.4431 28.8927 14.3611 29.6769L19.1536 34.1217C20.003 34.8485 21.6849 34.8204 22.5939 34.1397V37.6239L22.5972 37.625C22.5972 38.3416 22.8819 38.9919 23.3454 39.47H6.125V40.2811H39.875V39.47H27.1591ZM15.3039 20.3439C14.8404 20.3439 14.3049 19.382 14.3049 18.7542C14.3049 18.4977 14.4016 18.2536 14.5895 18.0545C14.6019 18.0399 15.8562 16.5987 17.0465 15.3646C18.2356 14.1305 19.8556 13.2867 21.6117 12.9875C21.6815 12.983 21.7501 12.9616 21.8098 12.9211C21.9245 12.8469 21.9943 12.7175 21.9943 12.5802C21.9943 12.461 21.9425 12.3485 21.8514 12.272C21.8098 12.236 21.7614 12.2101 21.7108 12.1944C20.6634 11.7072 19.9895 10.6554 19.9895 9.49887C19.9895 7.86087 21.3395 6.52775 23 6.52775C24.6616 6.52775 26.0127 7.86087 26.0127 9.49887C26.0127 10.6576 25.3355 11.7117 24.2836 12.1966C24.2353 12.2135 24.1903 12.2382 24.1509 12.272C24.0598 12.3485 24.008 12.4632 24.008 12.5825C24.008 12.7197 24.0777 12.8469 24.1925 12.9222C24.2555 12.9627 24.3253 12.9841 24.3973 12.9875C26.1635 13.2901 27.8229 14.153 28.958 15.3635C30.1471 16.5976 31.4004 18.0376 31.424 18.0657C31.6006 18.2525 31.6974 18.4955 31.6974 18.752C31.6974 19.3797 31.1619 20.3416 30.6995 20.3416H23.4072V16.655C23.7324 16.772 24.0856 16.9925 24.4107 17.1995C24.8934 17.5077 25.3096 17.7744 25.718 17.7766H27.4291C27.653 17.7766 27.8341 17.5955 27.8341 17.3716C27.8341 17.1477 27.6519 16.9666 27.4291 16.9666H25.7191C25.547 16.9655 25.1578 16.7169 24.8461 16.5177C24.2893 16.1622 23.6593 15.7595 22.9921 15.7595C22.343 15.7595 21.713 16.1622 21.1573 16.5177C20.8445 16.7169 20.4553 16.9655 20.2865 16.9666H18.5754C18.3515 16.9666 18.1704 17.1477 18.1704 17.3716C18.1704 17.5955 18.3515 17.7766 18.5754 17.7766H20.2887C20.696 17.7744 21.1123 17.5077 21.5938 17.1995C21.9166 16.9936 22.2676 16.7742 22.5972 16.6572V20.3416H15.3039V20.3439ZM22.5939 30.7085L20.0559 28.1907C20.5554 27.7149 21.5386 26.7789 21.965 26.3705L22.5939 26.6416V30.7085ZM27.0972 37.6239C27.0972 38.642 26.2704 39.47 25.2523 39.47C24.2341 39.47 23.4072 38.6431 23.4072 37.625L23.4039 37.6239V32.5906C23.4117 32.4826 23.4117 32.3757 23.4039 32.2677V26.3739C23.4039 26.2119 23.3083 26.0667 23.1586 26.0015L22.037 25.5189C21.8851 25.4536 21.7074 25.4885 21.5904 25.6055C21.4722 25.7247 19.1952 27.8892 19.1952 27.8892C19.1165 27.9646 19.0704 28.0681 19.0692 28.1784C19.0681 28.2886 19.1109 28.3932 19.1885 28.4709L22.1034 31.361C22.3993 31.6152 22.5646 31.9651 22.5927 32.3251V32.5434C22.5702 32.8314 22.46 33.1149 22.2598 33.35C21.7681 33.9226 20.2741 34.0126 19.6914 33.5165L14.8989 29.0716C14.3082 28.5654 14.2374 27.6732 14.7121 27.1141L18.779 23.2925C18.86 23.216 18.9061 23.1091 18.9061 22.9977V21.1527H27.0961L27.0972 37.6239Z" fill="#161616"/>
</svg>
